<?xml version="1.0" encoding="iso-8859-1"?>
<!-- Generator: Adobe Illustrator 19.0.0, SVG Export Plug-In . SVG Version: 6.00 Build 0)  -->
<svg version="1.1" id="Capa_1" xmlns="http://www.w3.org/2000/svg" xmlns:xlink="http://www.w3.org/1999/xlink" x="0px" y="0px"
	 viewBox="0 0 512 512" style="enable-background:new 0 0 512 512;" xml:space="preserve">
<g>
	<path style="fill:#455A64;" d="M85.333,277.333c-5.891-0.003-10.664-4.781-10.661-10.672c0.001-2.101,0.623-4.155,1.786-5.904
		l128-192c3.27-4.901,9.893-6.224,14.795-2.955c4.901,3.27,6.224,9.893,2.955,14.795l-128,192
		C92.227,275.559,88.897,277.336,85.333,277.333z"/>
	<path style="fill:#455A64;" d="M416,266.667c-3.622-0.001-6.997-1.841-8.96-4.885L289.707,80.448
		c-3.199-4.948-1.78-11.553,3.168-14.752c4.948-3.199,11.553-1.78,14.752,3.168L424.96,250.197
		c3.193,4.951,1.768,11.552-3.183,14.745c-1.716,1.107-3.714,1.698-5.756,1.703L416,266.667z"/>
</g>
<path style="fill:#2196F3;" d="M10.667,256h490.667c5.891,0,10.667,4.776,10.667,10.667V480c0,5.891-4.776,10.667-10.667,10.667
	H10.667C4.776,490.667,0,485.891,0,480V266.667C0,260.776,4.776,256,10.667,256z"/>
<circle style="fill:#607D8B;" cx="256" cy="74.667" r="53.333"/>
<g>
	<path style="fill:#FAFAFA;" d="M53.333,448c-23.564,0-42.667-19.102-42.667-42.667v-64c0-23.564,19.103-42.667,42.667-42.667
		S96,317.769,96,341.333C96,347.224,91.224,352,85.333,352c-5.891,0-10.667-4.776-10.667-10.667
		c0-11.782-9.551-21.333-21.333-21.333S32,329.551,32,341.333v64c0,11.782,9.551,21.333,21.333,21.333s21.333-9.551,21.333-21.333
		c0-5.891,4.776-10.667,10.667-10.667c5.891,0,10.667,4.776,10.667,10.667C96,428.898,76.897,448,53.333,448z"/>
	<path style="fill:#FAFAFA;" d="M490.667,448h-64c-5.891,0-10.667-4.776-10.667-10.667v-128c0-5.891,4.776-10.667,10.667-10.667h64
		c5.891,0,10.667,4.776,10.667,10.667S496.558,320,490.667,320h-53.333v106.667h53.333c5.891,0,10.667,4.776,10.667,10.667
		S496.558,448,490.667,448z"/>
	<path style="fill:#FAFAFA;" d="M469.333,384h-42.667c-5.891,0-10.667-4.776-10.667-10.667s4.776-10.667,10.667-10.667h42.667
		c5.891,0,10.667,4.776,10.667,10.667S475.224,384,469.333,384z"/>
	<path style="fill:#FAFAFA;" d="M192,448h-64c-5.891,0-10.667-4.776-10.667-10.667v-128c0-5.891,4.776-10.667,10.667-10.667
		c5.891,0,10.667,4.776,10.667,10.667v117.333H192c5.891,0,10.667,4.776,10.667,10.667S197.891,448,192,448z"/>
	<path style="fill:#FAFAFA;" d="M245.333,448c-23.564,0-42.667-19.102-42.667-42.667v-64c0-23.564,19.103-42.667,42.667-42.667
		S288,317.769,288,341.333v64C288,428.898,268.897,448,245.333,448z M245.333,320C233.551,320,224,329.551,224,341.333v64
		c0,11.782,9.551,21.333,21.333,21.333c11.782,0,21.333-9.551,21.333-21.333v-64C266.667,329.551,257.115,320,245.333,320z"/>
	<path style="fill:#FAFAFA;" d="M356.139,363.392l-3.157-0.725c-15.851-3.904-22.315-10.048-22.315-21.333
		c-0.377-11.782,8.869-21.639,20.651-22.016c11.782-0.377,21.639,8.869,22.016,20.651c0.476,5.83,5.485,10.235,11.328,9.963
		c5.879-0.377,10.339-5.448,9.963-11.327c0,0,0-0.001,0-0.001c-0.754-23.564-20.468-42.055-44.032-41.301
		c-23.564,0.754-42.055,20.468-41.301,44.032c0,14.827,6.677,34.133,38.571,41.963l3.157,0.811
		c15.829,3.883,22.272,10.027,22.272,21.333c0.371,11.782-8.879,21.634-20.661,22.005c-11.782,0.371-21.634-8.879-22.005-20.661l0,0
		c-0.455-5.841-5.477-10.258-11.328-9.963c-5.879,0.377-10.339,5.448-9.963,11.327c0,0,0,0.001,0,0.001
		c0.748,23.564,20.457,42.06,44.021,41.312c23.564-0.748,42.06-20.457,41.312-44.021l0,0
		C394.667,390.507,387.989,371.2,356.139,363.392z"/>
</g>
<g>
</g>
<g>
</g>
<g>
</g>
<g>
</g>
<g>
</g>
<g>
</g>
<g>
</g>
<g>
</g>
<g>
</g>
<g>
</g>
<g>
</g>
<g>
</g>
<g>
</g>
<g>
</g>
<g>
</g>
</svg>
