<svg xmlns="http://www.w3.org/2000/svg" xmlns:xlink="http://www.w3.org/1999/xlink" viewBox="16 850 56 56">
  <defs>
    <style>
      .cls-1 {
        fill: url(#linear-gradient);
      }

      .cls-2 {
        filter: url(#Exclusion_8);
      }
    </style>
    <linearGradient id="linear-gradient" x1="0.5" x2="0.5" y2="1" gradientUnits="objectBoundingBox">
      <stop offset="0" stop-color="#d4af37"/>
      <stop offset="0.502" stop-color="#cf9908"/>
      <stop offset="0.523" stop-color="#dfaa17"/>
      <stop offset="1" stop-color="#ffdd6e"/>
    </linearGradient>
    <filter id="Exclusion_8" x="16" y="850" width="56" height="56" filterUnits="userSpaceOnUse">
      <feOffset dy="3" input="SourceAlpha"/>
      <feGaussianBlur stdDeviation="3" result="blur"/>
      <feFlood flood-opacity="0.161"/>
      <feComposite operator="in" in2="blur"/>
      <feComposite in="SourceGraphic"/>
    </filter>
  </defs>
  <g class="cls-2" transform="matrix(1, 0, 0, 1, 0, 0)">
    <path id="Exclusion_8-2" data-name="Exclusion 8" class="cls-1" d="M19-692a18.875,18.875,0,0,1-13.435-5.565A18.876,18.876,0,0,1,0-711a18.876,18.876,0,0,1,5.565-13.435A18.876,18.876,0,0,1,19-730a18.876,18.876,0,0,1,13.435,5.565A18.876,18.876,0,0,1,38-711a18.876,18.876,0,0,1-5.565,13.435A18.875,18.875,0,0,1,19-692Zm0-35A16.018,16.018,0,0,0,3-711a16.018,16.018,0,0,0,16,16,16.018,16.018,0,0,0,16-16A16.018,16.018,0,0,0,19-727Zm5.518,26a.341.341,0,0,1-.243-.1l-1.19-1.187a9.215,9.215,0,0,1-4.084.944,9.222,9.222,0,0,1-4.085-.944l-1.19,1.187a.341.341,0,0,1-.243.1.342.342,0,0,1-.244-.1.342.342,0,0,1-.1-.243.342.342,0,0,1,.1-.243l1.044-1.041a9.381,9.381,0,0,1-3.327-3.33,9.24,9.24,0,0,1-1.267-4.671,9.221,9.221,0,0,1,2.608-6.436l-.578-.576-1.412,1.409a.347.347,0,0,1-.244.1.343.343,0,0,1-.244-.1A2.769,2.769,0,0,1,9-718.209a2.77,2.77,0,0,1,.819-1.975A2.785,2.785,0,0,1,11.8-721a2.787,2.787,0,0,1,1.981.817.338.338,0,0,1,.1.243.341.341,0,0,1-.1.243l-1.573,1.569.586.584A9.307,9.307,0,0,1,19-719.916a9.3,9.3,0,0,1,6.206,2.372l.587-.584L24.221-719.7a.338.338,0,0,1-.1-.243.341.341,0,0,1,.1-.243A2.785,2.785,0,0,1,26.2-721a2.785,2.785,0,0,1,1.98.817A2.771,2.771,0,0,1,29-718.209a2.771,2.771,0,0,1-.819,1.975.347.347,0,0,1-.244.1.343.343,0,0,1-.244-.1l-1.413-1.409-.578.576a9.223,9.223,0,0,1,2.609,6.436,9.238,9.238,0,0,1-1.267,4.671,9.383,9.383,0,0,1-3.327,3.33l1.044,1.041a.345.345,0,0,1,0,.487A.342.342,0,0,1,24.518-701ZM19-719.228a8.62,8.62,0,0,0-8.622,8.6,8.62,8.62,0,0,0,8.622,8.6,8.619,8.619,0,0,0,8.621-8.6A8.619,8.619,0,0,0,19-719.228Zm7.2-1.084a2.1,2.1,0,0,0-1.229.391l2.946,2.938a2.092,2.092,0,0,0-.224-2.714A2.1,2.1,0,0,0,26.2-720.312Zm-14.4,0a2.1,2.1,0,0,0-1.492.615,2.093,2.093,0,0,0-.224,2.714l2.946-2.938A2.107,2.107,0,0,0,11.8-720.312ZM19-702.72a7.933,7.933,0,0,1-3.938-1.048l-.01,0-.018-.007-.007-.007-.007-.007a7.977,7.977,0,0,1-2.871-2.859l-.009-.011-.009-.011a.031.031,0,0,1,0-.01.026.026,0,0,0,0-.009,7.877,7.877,0,0,1-1.056-3.937,7.882,7.882,0,0,1,1.056-3.937.038.038,0,0,0,0-.008.04.04,0,0,1,0-.011l.007-.007.007-.007a7.976,7.976,0,0,1,2.876-2.867l.006-.006.008-.007.011,0,.008,0A7.935,7.935,0,0,1,19-718.541a7.928,7.928,0,0,1,3.946,1.054l.008,0,.012,0,.008.007.007.006a7.981,7.981,0,0,1,2.875,2.867l.007.008.006.006a.048.048,0,0,1,0,.009.039.039,0,0,0,0,.009,7.877,7.877,0,0,1,1.057,3.937,7.882,7.882,0,0,1-1.057,3.937.039.039,0,0,0,0,.009.049.049,0,0,1,0,.01l-.008.011-.01.012a7.977,7.977,0,0,1-2.871,2.859l-.007.007-.007.007-.017.007-.011,0A7.932,7.932,0,0,1,19-702.72Zm0-1.375a.345.345,0,0,1,.345.344v.326a7.162,7.162,0,0,0,2.97-.791l-.165-.284a.341.341,0,0,1-.035-.261.341.341,0,0,1,.161-.209.344.344,0,0,1,.172-.046.347.347,0,0,1,.3.171l.165.284a7.207,7.207,0,0,0,2.173-2.168l-.284-.165a.34.34,0,0,1-.16-.208.342.342,0,0,1,.034-.262.345.345,0,0,1,.3-.172.344.344,0,0,1,.173.047l.286.165a7.121,7.121,0,0,0,.793-2.962H25.9a.345.345,0,0,1-.345-.344.345.345,0,0,1,.345-.345h.328a7.121,7.121,0,0,0-.793-2.962l-.286.166a.35.35,0,0,1-.172.046.347.347,0,0,1-.3-.172.341.341,0,0,1-.035-.261.341.341,0,0,1,.161-.209l.284-.165a7.313,7.313,0,0,0-2.174-2.167l-.165.283a.344.344,0,0,1-.3.172.342.342,0,0,1-.172-.046.341.341,0,0,1-.161-.209.341.341,0,0,1,.035-.261l.165-.285a7.161,7.161,0,0,0-2.97-.79v.326a.345.345,0,0,1-.345.344.345.345,0,0,1-.345-.344v-.326a7.174,7.174,0,0,0-2.97.79l.166.285a.342.342,0,0,1,.034.261.341.341,0,0,1-.161.209.342.342,0,0,1-.172.046.341.341,0,0,1-.3-.172l-.165-.283a7.334,7.334,0,0,0-2.174,2.167l.284.165a.345.345,0,0,1,.127.47.346.346,0,0,1-.3.172.346.346,0,0,1-.172-.046l-.285-.165a7.122,7.122,0,0,0-.794,2.962H12.1a.345.345,0,0,1,.345.344.345.345,0,0,1-.345.344h-.328a7.113,7.113,0,0,0,.793,2.962l.286-.165a.342.342,0,0,1,.171-.046.348.348,0,0,1,.3.172.341.341,0,0,1,.035.261.341.341,0,0,1-.161.209l-.284.165a7.315,7.315,0,0,0,2.174,2.167l.165-.284a.345.345,0,0,1,.3-.171.347.347,0,0,1,.173.046.341.341,0,0,1,.161.209.341.341,0,0,1-.035.261l-.165.284a7.147,7.147,0,0,0,2.97.791v-.326A.345.345,0,0,1,19-704.1Zm0-5.16a1.379,1.379,0,0,1-1.38-1.375,1.373,1.373,0,0,1,1.034-1.327v-3.488a.345.345,0,0,1,.346-.344.345.345,0,0,1,.345.344v3.488a1.377,1.377,0,0,1,.986.983h2.463a.345.345,0,0,1,.345.344.345.345,0,0,1-.345.344H20.331A1.377,1.377,0,0,1,19-709.255Zm0-2.063a.69.69,0,0,0-.69.688.69.69,0,0,0,.69.688.689.689,0,0,0,.689-.688A.689.689,0,0,0,19-711.318Z" transform="translate(25 1586)"/>
  </g>
</svg>
