<svg xmlns="http://www.w3.org/2000/svg" viewBox="126.335 599.796 25 24.937">
  <defs>
    <style>
      .cls-1 {
        fill: #f5f5f5;
      }
    </style>
  </defs>
  <g id="Group_3" data-name="Group 3" transform="translate(-16 158)">
    <path id="path422" class="cls-1" d="M-25.5-2.684A11.181,11.181,0,0,0-36.684,8.468,11.181,11.181,0,0,0-25.5,19.621,11.181,11.181,0,0,0-14.316,8.468,11.181,11.181,0,0,0-25.5-2.684m0,23.621A12.5,12.5,0,0,1-38,8.468,12.5,12.5,0,0,1-25.5-4,12.5,12.5,0,0,1-13,8.468,12.5,12.5,0,0,1-25.5,20.937" transform="translate(180.335 445.796)"/>
    <path id="path426" class="cls-1" d="M-9.283-21.883l-4.55-4.549v-6.178h1.316v5.633l4.165,4.163Z" transform="translate(168.01 480.968)"/>
  </g>
</svg>
