<svg xmlns="http://www.w3.org/2000/svg" viewBox="46.62 599.532 25 23.353">
  <defs>
    <style>
      .cls-1 {
        fill: #f5f5f5;
      }
    </style>
  </defs>
  <g id="Group_2" data-name="Group 2" transform="translate(19 35)">
    <path id="path2140" class="cls-1" d="M248.762-2836.256h-1.316v-10.45h1.316Z" transform="translate(-217.252 3423.046)"/>
    <path id="path2142" class="cls-1" d="M305.11-2836.257h-1.316v-10.449h1.316Z" transform="translate(-255.064 3423.046)"/>
    <path id="path2144" class="cls-1" d="M265.3-2814.291H241.619v-1.315H265.3Z" transform="translate(-213.342 3402.176)"/>
    <path id="path2148" class="cls-1" d="M-34.895-16.034a3.293,3.293,0,0,0,3.289,3.289,3.294,3.294,0,0,0,3.287-3.165l-2.741-6.668H-47.98l-2.7,6.666a3.293,3.293,0,0,0,3.287,3.167,3.293,3.293,0,0,0,3.289-3.289h1.316A3.293,3.293,0,0,0-39.5-12.744a3.293,3.293,0,0,0,3.289-3.289Zm3.289,4.605a4.607,4.607,0,0,1-3.947-2.236A4.607,4.607,0,0,1-39.5-11.428a4.607,4.607,0,0,1-3.947-2.236,4.607,4.607,0,0,1-3.947,2.236A4.61,4.61,0,0,1-52-16.034v-.128l3.134-7.732h18.689L-27-16.163v.13a4.61,4.61,0,0,1-4.605,4.605" transform="translate(79.619 588.426)"/>
  </g>
</svg>
