<svg xmlns="http://www.w3.org/2000/svg" xmlns:xlink="http://www.w3.org/1999/xlink" viewBox="907.999 523 138.001 138">
  <defs>
    <style>
      .cls-1 {
        fill: url(#linear-gradient);
      }

      .cls-2 {
        filter: url(#Exclusion_5);
      }
    </style>
    <linearGradient id="linear-gradient" x1="0.5" x2="0.5" y2="1" gradientUnits="objectBoundingBox">
      <stop offset="0" stop-color="#d4af37"/>
      <stop offset="0.498" stop-color="#cf9908"/>
      <stop offset="0.51" stop-color="#d49f0b"/>
      <stop offset="1" stop-color="#ffdd6e"/>
    </linearGradient>
    <filter id="Exclusion_5" x="907.999" y="523" width="138.001" height="138" filterUnits="userSpaceOnUse">
      <feOffset dy="3" input="SourceAlpha"/>
      <feGaussianBlur stdDeviation="3" result="blur"/>
      <feFlood flood-opacity="0.161"/>
      <feComposite operator="in" in2="blur"/>
      <feComposite in="SourceGraphic"/>
    </filter>
  </defs>
  <g class="cls-2" transform="matrix(1, 0, 0, 1, 0, 0)">
    <path id="Exclusion_5-2" data-name="Exclusion 5" class="cls-1" d="M-800,120a59.628,59.628,0,0,1-23.354-4.715,59.789,59.789,0,0,1-19.072-12.858,59.778,59.778,0,0,1-12.858-19.071A59.615,59.615,0,0,1-860,60a59.615,59.615,0,0,1,4.716-23.355,59.792,59.792,0,0,1,12.858-19.072A59.8,59.8,0,0,1-823.354,4.715,59.628,59.628,0,0,1-800,0a59.63,59.63,0,0,1,23.355,4.715,59.813,59.813,0,0,1,19.072,12.858,59.791,59.791,0,0,1,12.858,19.072A59.615,59.615,0,0,1-740,60a59.615,59.615,0,0,1-4.715,23.355,59.777,59.777,0,0,1-12.858,19.071,59.788,59.788,0,0,1-19.072,12.858A59.63,59.63,0,0,1-800,120Zm.011-114.991c-.325,0-.654,0-.979.009a54.64,54.64,0,0,0-38.6,16.785A54.639,54.639,0,0,0-855,60.969a55.255,55.255,0,0,0,54.973,54.04c.33,0,.649,0,.979-.009a54.627,54.627,0,0,0,38.585-16.8,54.627,54.627,0,0,0,15.446-39.148A55.251,55.251,0,0,0-799.99,5.009ZM-774,93.522h-51V82.435h2.218V27h46.565V82.435H-774V93.521Zm-48.782-8.87V91.3h46.565V84.652h-46.565Zm2.217-44.348V82.435h42.131V40.3Zm0-11.086v8.869h2.217V33.652h15.521v4.435h24.392V29.218Zm4.435,6.652v2.218h11.086V35.869ZM-799.5,76.891A16.65,16.65,0,0,1-816.13,60.26,16.649,16.649,0,0,1-799.5,43.63a16.674,16.674,0,0,1,16.629,16.63A16.649,16.649,0,0,1-799.5,76.891Zm0-31.044A14.319,14.319,0,0,0-809.69,50.07a14.315,14.315,0,0,0-4.221,10.191,14.319,14.319,0,0,0,4.221,10.192A14.319,14.319,0,0,0-799.5,74.674a14.336,14.336,0,0,0,10.186-4.226,14.337,14.337,0,0,0,4.226-10.187,14.314,14.314,0,0,0-4.221-10.191A14.319,14.319,0,0,0-799.5,45.848Zm-.013,26.609c-.4,0-.811-.021-1.22-.062l-.067-.009-.026,0c-.032-.005-.065-.01-.1-.013l-.07-.009-.019,0c-.309-.041-.629-.084-.932-.145l-.091-.023a12.094,12.094,0,0,1-8.706-7.184c-.143-.359-.256-.666-.345-.94-.007-.023-.015-.045-.023-.069l0,0-.007-.018-.016-.048c-.011-.033-.022-.066-.032-.1-.06-.2-.11-.4-.157-.6l0-.009-.021-.086c-.008-.034-.017-.067-.025-.1l-.016-.066,0-.011c-.026-.105-.053-.212-.077-.327-.016-.079-.028-.163-.038-.237l0-.032,0-.01c-.006-.049-.013-.1-.022-.145l-.018-.113c-.033-.207-.071-.441-.093-.672v-.007l-.1-1.029.044-.007V60.26a12.229,12.229,0,0,1,12.2-12.195A12.227,12.227,0,0,1-787.3,60.26c0,.021,0,.04,0,.058v.02l0,.033.024,0-.1,1.031v.008c-.023.222-.057.442-.094.666l-.018.11v.007c-.006.042-.012.083-.017.124l0,.015c-.015.119-.03.211-.046.3-.022.111-.05.221-.076.327l0,.011,0,.005c-.011.047-.023.093-.035.14l0,.009c-.059.253-.114.481-.183.709-.015.049-.031.1-.046.137l-.015.044,0,.008-.013.04a12.124,12.124,0,0,1-9.055,8.134l-.092.023c-.314.062-.648.113-1.022.156l-.077.011-.013,0c-.034.005-.068.011-.1.014A12.064,12.064,0,0,1-799.511,72.457Zm-5.909-12.2a3.408,3.408,0,0,0-2.294.886,6.881,6.881,0,0,1-1.586.955.14.14,0,0,1,.01.062c.018.093.04.181.066.286l.013.057.013.057.011.043c.038.165.082.35.135.526.013.042.027.085.041.126l0,.006,0,.008c.011.032.022.065.032.1.074.222.164.483.271.737l.028.066a10.029,10.029,0,0,0,6.178,5.6l.064.021c.248.075.514.144.814.21l.07.015.015,0,.081.018c.265.054.526.088.768.118l.04.006.037.005c.045.006.088.013.133.017.331.033.66.049.977.049s.645-.017.976-.049c.035,0,.071-.008.118-.015l.1-.013c.27-.027.526-.064.76-.111l.172-.039c.327-.073.584-.139.807-.209l.072-.022a10.015,10.015,0,0,0,6.175-5.6l.025-.058c.091-.217.181-.461.274-.746l.018-.052,0-.01.011-.032c.015-.044.03-.089.043-.133.048-.158.088-.323.126-.483l.007-.03.016-.07c.01-.042.021-.084.031-.126l0-.01,0-.014c.019-.076.038-.155.053-.235,0-.015,0-.028.006-.042l0-.028a6.953,6.953,0,0,1-1.6-.959,3.4,3.4,0,0,0-2.3-.887,3.407,3.407,0,0,0-2.3.887,5.6,5.6,0,0,1-3.621,1.33,5.6,5.6,0,0,1-3.621-1.33A3.406,3.406,0,0,0-805.421,60.255Zm.007-2.21a5.6,5.6,0,0,1,3.62,1.328,3.4,3.4,0,0,0,2.291.887,3.4,3.4,0,0,0,2.29-.887,5.609,5.609,0,0,1,3.623-1.328,5.614,5.614,0,0,1,3.624,1.328c.135.1.274.2.419.3a9.965,9.965,0,0,0-9.37-9.376c-.189-.011-.386-.017-.587-.017a9.971,9.971,0,0,0-9.941,9.387c.132-.09.267-.191.387-.28l.022-.016A5.607,5.607,0,0,1-805.414,58.045Zm2.219-1.917h0l-1.478-1.651A7.736,7.736,0,0,1-799.5,52.5v2.218h-.005a5.524,5.524,0,0,0-3.687,1.41Zm18.109-20.259a2.22,2.22,0,0,1-2.218-2.218,2.22,2.22,0,0,1,2.218-2.218,2.22,2.22,0,0,1,2.217,2.218A2.22,2.22,0,0,1-785.086,35.869Zm-6.653,0a2.22,2.22,0,0,1-2.217-2.218,2.22,2.22,0,0,1,2.217-2.218,2.22,2.22,0,0,1,2.218,2.218A2.22,2.22,0,0,1-791.739,35.869Z" transform="translate(1777 529)"/>
  </g>
</svg>
