<svg xmlns="http://www.w3.org/2000/svg" viewBox="464 1145 17 24.272">
  <g id="placeholder-3" transform="translate(455.797 1145)">
    <path id="Path_2400" data-name="Path 2400" d="M23.66,12a3.1,3.1,0,1,0,3.1,3.1A3.107,3.107,0,0,0,23.66,12Zm0,5.319A2.216,2.216,0,1,1,25.876,15.1,2.219,2.219,0,0,1,23.66,17.319Z" transform="translate(-6.878 -6.681)"/>
    <path id="Path_2401" data-name="Path 2401" d="M22.714,2.49a8.5,8.5,0,0,0-12.022,0,9.682,9.682,0,0,0-.8,11.947l6.81,9.835,6.8-9.822A9.686,9.686,0,0,0,22.714,2.49Zm.07,11.443L16.7,22.715l-6.091-8.8a8.748,8.748,0,0,1,.707-10.8,7.614,7.614,0,0,1,10.768,0A8.752,8.752,0,0,1,22.785,13.933Z" transform="translate(0 0)"/>
  </g>
</svg>
