<svg xmlns="http://www.w3.org/2000/svg" viewBox="288.091 599.167 25 25.194">
  <defs>
    <style>
      .cls-1 {
        fill: #f5f5f5;
      }
    </style>
  </defs>
  <g id="Group_6" data-name="Group 6" transform="translate(144 156)">
    <path id="path798" class="cls-1" d="M-14.366-2.638a6.065,6.065,0,0,0-6.054,6.062,6.065,6.065,0,0,0,6.054,6.063A6.065,6.065,0,0,0-8.312,3.424a6.065,6.065,0,0,0-6.053-6.062m0,13.486a7.428,7.428,0,0,1-7.416-7.424A7.428,7.428,0,0,1-14.366-4,7.428,7.428,0,0,1-6.95,3.424a7.428,7.428,0,0,1-7.415,7.424" transform="translate(171.028 447.167)"/>
    <path id="path802" class="cls-1" d="M-48.429-14.805h-1.362v-1.182a5.129,5.129,0,0,0-5.148-5.1H-66.919a5.129,5.129,0,0,0-5.148,5.1v1.182h-1.362v-1.182a6.493,6.493,0,0,1,6.51-6.461h11.981a6.493,6.493,0,0,1,6.51,6.461Z" transform="translate(217.52 483.166)"/>
  </g>
</svg>
