<svg xmlns="http://www.w3.org/2000/svg" viewBox="207.286 599.967 25 25.9">
  <defs>
    <style>
      .cls-1 {
        fill: #f5f5f5;
      }
    </style>
  </defs>
  <g id="Group_4" data-name="Group 4" transform="translate(-491 55)">
    <g id="Group_5" data-name="Group 5" transform="translate(698.286 544.967)">
      <path id="path536" class="cls-1" d="M-22.689-40.4l11.164,2.081V-61.1H-33.7v22.778ZM-35.111-36.61v-25.9h25v25.9l-12.577-2.344Z" transform="translate(35.111 62.511)"/>
      <path id="path540" class="cls-1" d="M-12.825-19.462l2.992.867.113-3.113,1.749-2.578L-10.9-25.355l-1.911-2.46-1.921,2.452-2.93,1.057,1.739,2.585.1,3.114Zm4.341,2.731-4.343-1.259-4.349,1.241-.145-4.52-2.525-3.752,4.254-1.535,2.789-3.56,2.774,3.572,4.248,1.552-2.54,3.742Z" transform="translate(25.315 35.235)"/>
    </g>
  </g>
</svg>
