<svg xmlns="http://www.w3.org/2000/svg" viewBox="747.03 19.701 22 22.847">
  <defs>
    <style>
      .cls-1 {
        fill: #5d5d5d;
      }
    </style>
  </defs>
  <g id="Group_31" data-name="Group 31" transform="translate(484 18)">
    <path id="path442" class="cls-1" d="M-9.791-2.8A3.009,3.009,0,0,0-12.8.209,3.009,3.009,0,0,0-9.791,3.215,3.009,3.009,0,0,0-6.785.209,3.009,3.009,0,0,0-9.791-2.8m0,7.215A4.213,4.213,0,0,1-14,.209,4.213,4.213,0,0,1-9.791-4,4.213,4.213,0,0,1-5.583.209,4.213,4.213,0,0,1-9.791,4.417" transform="translate(283.821 12.916)"/>
    <path id="path446" class="cls-1" d="M-21.25-50.029a10.022,10.022,0,0,0,1.665.14,15.935,15.935,0,0,0,2.067-.145,5.652,5.652,0,0,1,2.426-2.876,5.576,5.576,0,0,1,3.666-.694,10.165,10.165,0,0,0,1.679-2.94,5.71,5.71,0,0,1-1.246-3.565,5.708,5.708,0,0,1,1.246-3.565,10.159,10.159,0,0,0-1.679-2.94,5.584,5.584,0,0,1-3.666-.694,5.653,5.653,0,0,1-2.426-2.877,15.938,15.938,0,0,0-2.067-.145,10.021,10.021,0,0,0-1.665.14,5.653,5.653,0,0,1-2.428,2.882,5.583,5.583,0,0,1-3.665.694,10.153,10.153,0,0,0-1.68,2.94,5.713,5.713,0,0,1,1.245,3.565,5.711,5.711,0,0,1-1.246,3.564,10.178,10.178,0,0,0,1.68,2.941,5.584,5.584,0,0,1,3.665.694,5.649,5.649,0,0,1,2.428,2.882m1.665,1.343a11.209,11.209,0,0,1-2.24-.227l-.349-.071-.105-.34a4.463,4.463,0,0,0-2.007-2.548,4.389,4.389,0,0,0-3.159-.489l-.349.078-.235-.269a11.379,11.379,0,0,1-2.245-3.931l-.11-.332.235-.26a4.511,4.511,0,0,0,1.17-3.034,4.516,4.516,0,0,0-1.169-3.035l-.235-.26.11-.332a11.366,11.366,0,0,1,2.245-3.93l.235-.269.349.078a4.39,4.39,0,0,0,3.159-.489,4.468,4.468,0,0,0,2.007-2.548l.1-.34.349-.071a11.212,11.212,0,0,1,2.24-.227,15.513,15.513,0,0,1,2.64.227l.349.071.105.341a4.463,4.463,0,0,0,2.007,2.548,4.388,4.388,0,0,0,3.159.489l.349-.078.235.269a11.367,11.367,0,0,1,2.245,3.93l.11.333-.235.26a4.511,4.511,0,0,0-1.17,3.034,4.512,4.512,0,0,0,1.17,3.035l.235.26-.11.333a11.374,11.374,0,0,1-2.245,3.93l-.235.269-.349-.078a4.388,4.388,0,0,0-3.16.489,4.467,4.467,0,0,0-2.007,2.548l-.105.34-.349.071a15.5,15.5,0,0,1-2.64.227" transform="translate(293.414 73.234)"/>
  </g>
</svg>
