<svg xmlns="http://www.w3.org/2000/svg" xmlns:xlink="http://www.w3.org/1999/xlink" viewBox="1040 523 138.001 138">
  <defs>
    <style>
      .cls-1 {
        fill: url(#linear-gradient);
      }

      .cls-2 {
        filter: url(#Exclusion_4);
      }
    </style>
    <linearGradient id="linear-gradient" x1="0.5" x2="0.5" y2="1" gradientUnits="objectBoundingBox">
      <stop offset="0" stop-color="#d4af37"/>
      <stop offset="0.498" stop-color="#cf9908"/>
      <stop offset="0.51" stop-color="#d49f0b"/>
      <stop offset="1" stop-color="#ffdd6e"/>
    </linearGradient>
    <filter id="Exclusion_4" x="1040" y="523" width="138.001" height="138" filterUnits="userSpaceOnUse">
      <feOffset dy="3" input="SourceAlpha"/>
      <feGaussianBlur stdDeviation="3" result="blur"/>
      <feFlood flood-opacity="0.161"/>
      <feComposite operator="in" in2="blur"/>
      <feComposite in="SourceGraphic"/>
    </filter>
  </defs>
  <g class="cls-2" transform="matrix(1, 0, 0, 1, 0, 0)">
    <path id="Exclusion_4-2" data-name="Exclusion 4" class="cls-1" d="M-800,120a59.63,59.63,0,0,1-23.355-4.715,59.8,59.8,0,0,1-19.072-12.858,59.776,59.776,0,0,1-12.858-19.071A59.615,59.615,0,0,1-860,60a59.615,59.615,0,0,1,4.715-23.355,59.792,59.792,0,0,1,12.858-19.072A59.813,59.813,0,0,1-823.354,4.715,59.63,59.63,0,0,1-800,0a59.628,59.628,0,0,1,23.354,4.715,59.8,59.8,0,0,1,19.072,12.858,59.791,59.791,0,0,1,12.858,19.072A59.615,59.615,0,0,1-740,60a59.615,59.615,0,0,1-4.716,23.355,59.777,59.777,0,0,1-12.858,19.071,59.788,59.788,0,0,1-19.072,12.858A59.628,59.628,0,0,1-800,120Zm0-115a55.062,55.062,0,0,0-55,55,55.062,55.062,0,0,0,55,55,55.062,55.062,0,0,0,55-55A55.062,55.062,0,0,0-800,5Zm34.867,85.3h-29.884a1.134,1.134,0,0,1-1.133-1.132V88.6l-16.661-3.107v3.676a1.134,1.134,0,0,1-1.133,1.132h-19.922A1.134,1.134,0,0,1-835,89.167V79a1.141,1.141,0,0,1,.332-.8,1.127,1.127,0,0,1,.392-.255V72.32a27.648,27.648,0,0,1,1.031-6.738.048.048,0,0,1,0-.01,31.493,31.493,0,0,0,.929-7.4V31.133A1.134,1.134,0,0,1-831.179,30a1.134,1.134,0,0,1,1.133,1.133v3.4h28.509a1.13,1.13,0,0,1,1.127,1.016l2.089,20.194a13.162,13.162,0,0,0,8.852,10.392l14.431,3.882a13.739,13.739,0,0,1,9.529,11.38h.376A1.134,1.134,0,0,1-764,82.529v6.638A1.134,1.134,0,0,1-765.132,90.3Zm-9.961-4.2a1.134,1.134,0,0,1,1.133,1.133v.8h2.713l0-.8a1.134,1.134,0,0,1,1.133-1.133,1.134,1.134,0,0,1,1.133,1.133v.8h2.714V83.661h-28.75a1.135,1.135,0,0,1-.208-.019l-18.824-3.51h-18.685v7.9h2.714v-.8a1.134,1.134,0,0,1,1.133-1.133,1.134,1.134,0,0,1,1.133,1.133v.8h2.714v-.8a1.134,1.134,0,0,1,1.133-1.133,1.134,1.134,0,0,1,1.133,1.133v.8h2.714v-.8a1.134,1.134,0,0,1,1.133-1.133,1.134,1.134,0,0,1,1.133,1.133v.8h2.714V84.127a1.127,1.127,0,0,1,.409-.871,1.135,1.135,0,0,1,.724-.262,1.145,1.145,0,0,1,.207.019l18.927,3.53a1.133,1.133,0,0,1,.925,1.113v.378h2.715v-.8a1.134,1.134,0,0,1,1.133-1.133,1.134,1.134,0,0,1,1.133,1.133v.8h2.714v-.8a1.134,1.134,0,0,1,1.133-1.133,1.134,1.134,0,0,1,1.133,1.133v.8h2.714v-.8a1.134,1.134,0,0,1,1.133-1.133,1.134,1.134,0,0,1,1.133,1.133v.8h2.714v-.8A1.134,1.134,0,0,1-775.094,86.1Zm-22.1-8.88a3.917,3.917,0,0,0-3.829,3.038l6.112,1.139h27.119a11.373,11.373,0,0,0-2.648-5.731,10.588,10.588,0,0,0-5.186-3.461l-14.431-3.881-.078-.023-.064-.019v7.8a1.134,1.134,0,0,1-1.133,1.133ZM-831.3,67.078a25.749,25.749,0,0,0-.706,5.243v5.545h18.066a1.133,1.133,0,0,1,.208.02l10.481,1.955a6.236,6.236,0,0,1,6.06-4.889h4.729V72.31a19.93,19.93,0,0,1-12.617-15.868l-.157-1.516h-.489a1.134,1.134,0,0,1-1.133-1.133,1.134,1.134,0,0,1,1.133-1.132h.254l-.391-3.777h-.489a1.134,1.134,0,0,1-1.133-1.133,1.134,1.134,0,0,1,1.133-1.132h.255l-.391-3.777h-15.626a1.134,1.134,0,0,1-1.133-1.132,1.134,1.134,0,0,1,1.133-1.133h19.948l-.391-3.776h-27.488v3.776h3.4a1.134,1.134,0,0,1,1.132,1.133,1.133,1.133,0,0,1-1.132,1.132h-3.4V58.177a36.98,36.98,0,0,1-.689,6.678,14.316,14.316,0,0,1,11.92,9.221,1.136,1.136,0,0,1-.671,1.455,1.128,1.128,0,0,1-.391.07,1.139,1.139,0,0,1-1.064-.742A11.981,11.981,0,0,0-831.3,67.078h0Zm28.342-12.153.132,1.283c.579,5.6,4.936,11.342,10.362,13.665l0-2.5c-4.313-2.246-7.648-6.934-8.109-11.4l-.109-1.05Zm-.625-6.043.391,3.777h2.277l-.389-3.777Zm-.625-6.043.391,3.777h2.276l-.389-3.777Z" transform="translate(1909 529)"/>
  </g>
</svg>
