<svg xmlns="http://www.w3.org/2000/svg" xmlns:xlink="http://www.w3.org/1999/xlink" viewBox="1310 527 126.001 126.001">
  <defs>
    <style>
      .cls-1 {
        fill: url(#linear-gradient);
      }

      .cls-2 {
        filter: url(#Exclusion_22);
      }
    </style>
    <linearGradient id="linear-gradient" x1="0.5" x2="0.5" y2="1" gradientUnits="objectBoundingBox">
      <stop offset="0" stop-color="#d4af37"/>
      <stop offset="0.502" stop-color="#cf9908"/>
      <stop offset="0.523" stop-color="#dfaa17"/>
      <stop offset="1" stop-color="#ffdd6e"/>
    </linearGradient>
    <filter id="Exclusion_22" x="1310" y="527" width="126.001" height="126.001" filterUnits="userSpaceOnUse">
      <feOffset dy="1" input="SourceAlpha"/>
      <feGaussianBlur stdDeviation="1" result="blur"/>
      <feFlood flood-opacity="0.161"/>
      <feComposite operator="in" in2="blur"/>
      <feComposite in="SourceGraphic"/>
    </filter>
  </defs>
  <g class="cls-2" transform="matrix(1, 0, 0, 1, 0, 0)">
    <path id="Exclusion_22-2" data-name="Exclusion 22" class="cls-1" d="M-800,120a59.624,59.624,0,0,1-23.355-4.715,59.8,59.8,0,0,1-19.072-12.859,59.8,59.8,0,0,1-12.859-19.072A59.624,59.624,0,0,1-860,60a59.624,59.624,0,0,1,4.715-23.355,59.8,59.8,0,0,1,12.859-19.072A59.8,59.8,0,0,1-823.355,4.715,59.624,59.624,0,0,1-800,0a59.625,59.625,0,0,1,23.355,4.715,59.8,59.8,0,0,1,19.072,12.859,59.8,59.8,0,0,1,12.858,19.072A59.625,59.625,0,0,1-740,60a59.625,59.625,0,0,1-4.715,23.355,59.8,59.8,0,0,1-12.858,19.072,59.8,59.8,0,0,1-19.072,12.859A59.625,59.625,0,0,1-800,120Zm0-112.127A52.185,52.185,0,0,0-852.126,60,52.185,52.185,0,0,0-800,112.127,52.185,52.185,0,0,0-747.874,60,52.185,52.185,0,0,0-800,7.874Zm28.421,85.986h-53.684V82.427h2.334V25.263h49.017V82.427h2.334V93.859Zm-51.35-9.147v6.86h49.017v-6.86Zm2.335-45.731V82.427h44.348V38.983Zm2.334-6.86h16.339V36.7h25.675V27.55h-44.348V36.7h2.334V32.124Zm2.335,2.286V36.7h11.67V34.409Zm17.506,42.3A17.576,17.576,0,0,1-810.8,71.688a16.863,16.863,0,0,1-5.127-12.127A16.862,16.862,0,0,1-810.8,47.435a17.576,17.576,0,0,1,12.379-5.023,17.6,17.6,0,0,1,12.372,5.029,16.885,16.885,0,0,1,5.134,12.12,16.863,16.863,0,0,1-5.128,12.127A17.576,17.576,0,0,1-798.421,76.711Zm0-32.012a15.037,15.037,0,0,0-15.172,14.863,15.037,15.037,0,0,0,15.172,14.863,15.059,15.059,0,0,0,15.171-14.863A15.036,15.036,0,0,0-798.421,44.7Zm-.014,27.44c-.416,0-.848-.022-1.283-.064-.033,0-.066-.009-.1-.014s-.068-.011-.1-.014l-.067-.009c-.334-.043-.68-.087-1.009-.152l-.1-.023a12.67,12.67,0,0,1-9.164-7.409c-.144-.352-.263-.669-.363-.969-.012-.037-.026-.075-.039-.112l0-.006c-.015-.043-.03-.085-.044-.128-.067-.216-.121-.441-.174-.657l-.015-.063c-.013-.053-.026-.106-.04-.158l0-.012c-.031-.119-.059-.232-.083-.35-.019-.094-.033-.19-.046-.284-.007-.052-.015-.1-.023-.154l-.014-.087c-.039-.236-.079-.479-.1-.723v-.007l-.1-1.061.047-.008v-.114a12.381,12.381,0,0,1,3.764-8.888,12.905,12.905,0,0,1,9.073-3.688,12.907,12.907,0,0,1,9.077,3.686,12.381,12.381,0,0,1,3.766,8.89c0,.021,0,.041,0,.06s0,.036,0,.055l.025,0-.1,1.064v.008c-.025.246-.065.486-.1.718l-.013.082c-.006.042-.012.085-.018.127l0,.015c-.015.109-.03.212-.05.316-.025.123-.057.246-.088.364-.012.048-.025.1-.037.143-.058.241-.118.49-.193.732-.016.051-.033.1-.051.15l-.03.086a12.672,12.672,0,0,1-9.53,8.388l-.1.023c-.333.065-.684.118-1.075.16l-.093.013c-.039.006-.075.012-.111.015C-797.58,72.117-798.012,72.139-798.434,72.139Zm-6.221-12.583a3.626,3.626,0,0,0-2.414.913,7.307,7.307,0,0,1-1.669.985.146.146,0,0,1,.01.064c.018.092.041.185.063.274.012.047.023.093.034.139l.013.053c.043.176.087.358.141.535.015.048.031.094.047.142l0,.01.031.093c.1.31.192.545.284.76l.03.068a10.475,10.475,0,0,0,6.5,5.777l.068.022c.257.078.537.148.857.216l.075.016.1.022c.272.055.549.091.807.122l.089.012c.045.006.088.013.132.017.357.034.7.051,1.03.051s.667-.017,1.028-.051c.041,0,.081-.01.121-.015l.1-.014c.283-.027.552-.066.8-.114l.181-.04c.334-.071.6-.139.85-.214l.077-.023a10.471,10.471,0,0,0,6.5-5.779l.027-.061c.1-.227.188-.471.288-.77l.024-.071c.019-.056.038-.109.054-.163.06-.2.11-.4.157-.6.009-.039.019-.077.028-.115l0-.015c.021-.082.044-.176.063-.268v-.007c0-.022.006-.039.008-.065a7.358,7.358,0,0,1-1.679-.989,3.63,3.63,0,0,0-2.417-.915,3.632,3.632,0,0,0-2.417.915,5.964,5.964,0,0,1-3.811,1.372,5.967,5.967,0,0,1-3.811-1.372A3.622,3.622,0,0,0-804.655,59.556Zm.008-2.278a5.978,5.978,0,0,1,3.811,1.369,3.611,3.611,0,0,0,2.41.915,3.614,3.614,0,0,0,2.411-.915,5.984,5.984,0,0,1,3.815-1.37,5.987,5.987,0,0,1,3.815,1.37c.152.111.3.214.439.312a10.382,10.382,0,0,0-9.862-9.669c-.206-.012-.414-.018-.618-.018a10.4,10.4,0,0,0-10.463,9.679c.137-.092.27-.189.43-.305A5.978,5.978,0,0,1-804.647,57.278Zm2.336-1.977h0l-1.556-1.7a8.24,8.24,0,0,1,5.443-2.039l0,2.287h-.005A5.881,5.881,0,0,0-802.31,55.3Zm19.061-20.891a2.313,2.313,0,0,1-2.334-2.287,2.313,2.313,0,0,1,2.334-2.287,2.314,2.314,0,0,1,2.335,2.287A2.314,2.314,0,0,1-783.249,34.41Zm-7,0a2.314,2.314,0,0,1-2.335-2.287,2.314,2.314,0,0,1,2.335-2.287,2.313,2.313,0,0,1,2.334,2.287A2.313,2.313,0,0,1-790.251,34.41Z" transform="translate(2173 529)"/>
  </g>
</svg>
