<svg xmlns="http://www.w3.org/2000/svg" xmlns:xlink="http://www.w3.org/1999/xlink" viewBox="1245 464 44 44">
  <defs>
    <style>
      .cls-1 {
        fill: #fff;
      }

      .cls-2 {
        fill: url(#linear-gradient);
      }

      .cls-3 {
        filter: url(#Path_1599);
      }

      .cls-4 {
        filter: url(#Path_1598);
      }

      .cls-5 {
        filter: url(#Path_1597);
      }

      .cls-6 {
        filter: url(#Path_1596);
      }

      .cls-7 {
        filter: url(#Path_1595);
      }

      .cls-8 {
        filter: url(#Exclusion_29);
      }

      .cls-9 {
        filter: url(#Ellipse_81);
      }
    </style>
    <filter id="Ellipse_81" x="1245" y="464" width="44" height="44" filterUnits="userSpaceOnUse">
      <feOffset dy="1" input="SourceAlpha"/>
      <feGaussianBlur stdDeviation="1" result="blur"/>
      <feFlood flood-opacity="0.161"/>
      <feComposite operator="in" in2="blur"/>
      <feComposite in="SourceGraphic"/>
    </filter>
    <linearGradient id="linear-gradient" x1="0.5" x2="0.5" y2="1" gradientUnits="objectBoundingBox">
      <stop offset="0" stop-color="#d4af37"/>
      <stop offset="0.502" stop-color="#cf9908"/>
      <stop offset="0.523" stop-color="#dfaa17"/>
      <stop offset="1" stop-color="#ffdd6e"/>
    </linearGradient>
    <filter id="Exclusion_29" x="1245" y="464" width="44" height="44" filterUnits="userSpaceOnUse">
      <feOffset dy="1" input="SourceAlpha"/>
      <feGaussianBlur stdDeviation="1" result="blur-2"/>
      <feFlood flood-opacity="0.161"/>
      <feComposite operator="in" in2="blur-2"/>
      <feComposite in="SourceGraphic"/>
    </filter>
    <filter id="Path_1595" x="1264.906" y="484.219" width="21.25" height="21.25" filterUnits="userSpaceOnUse">
      <feOffset dy="3" input="SourceAlpha"/>
      <feGaussianBlur stdDeviation="3" result="blur-3"/>
      <feFlood flood-opacity="0.161"/>
      <feComposite operator="in" in2="blur-3"/>
      <feComposite in="SourceGraphic"/>
    </filter>
    <filter id="Path_1596" x="1247.844" y="484.219" width="21.25" height="21.25" filterUnits="userSpaceOnUse">
      <feOffset dy="3" input="SourceAlpha"/>
      <feGaussianBlur stdDeviation="3" result="blur-4"/>
      <feFlood flood-opacity="0.161"/>
      <feComposite operator="in" in2="blur-4"/>
      <feComposite in="SourceGraphic"/>
    </filter>
    <filter id="Path_1597" x="1245" y="470" width="44" height="36.687" filterUnits="userSpaceOnUse">
      <feOffset dy="3" input="SourceAlpha"/>
      <feGaussianBlur stdDeviation="3" result="blur-5"/>
      <feFlood flood-opacity="0.161"/>
      <feComposite operator="in" in2="blur-5"/>
      <feComposite in="SourceGraphic"/>
    </filter>
    <filter id="Path_1598" x="1248.453" y="476.094" width="22.266" height="21.25" filterUnits="userSpaceOnUse">
      <feOffset dy="3" input="SourceAlpha"/>
      <feGaussianBlur stdDeviation="3" result="blur-6"/>
      <feFlood flood-opacity="0.161"/>
      <feComposite operator="in" in2="blur-6"/>
      <feComposite in="SourceGraphic"/>
    </filter>
    <filter id="Path_1599" x="1255.563" y="476.094" width="21.656" height="20.438" filterUnits="userSpaceOnUse">
      <feOffset dy="3" input="SourceAlpha"/>
      <feGaussianBlur stdDeviation="3" result="blur-7"/>
      <feFlood flood-opacity="0.161"/>
      <feComposite operator="in" in2="blur-7"/>
      <feComposite in="SourceGraphic"/>
    </filter>
  </defs>
  <g id="Group_83" data-name="Group 83" transform="translate(860)">
    <g class="cls-9" transform="matrix(1, 0, 0, 1, -860, 0)">
      <circle id="Ellipse_81-2" data-name="Ellipse 81" class="cls-1" cx="19" cy="19" r="19" transform="translate(1248 466)"/>
    </g>
    <circle id="Ellipse_76" data-name="Ellipse 76" class="cls-1" cx="19" cy="19" r="19" transform="translate(388 466)"/>
    <g class="cls-8" transform="matrix(1, 0, 0, 1, -860, 0)">
      <path id="Exclusion_29-2" data-name="Exclusion 29" class="cls-2" d="M19-692a18.875,18.875,0,0,1-13.435-5.565A18.876,18.876,0,0,1,0-711a18.876,18.876,0,0,1,5.565-13.435A18.876,18.876,0,0,1,19-730a18.876,18.876,0,0,1,13.435,5.565A18.876,18.876,0,0,1,38-711a18.876,18.876,0,0,1-5.565,13.435A18.875,18.875,0,0,1,19-692Zm0-35A16.018,16.018,0,0,0,3-711a16.018,16.018,0,0,0,16,16,16.018,16.018,0,0,0,16-16A16.018,16.018,0,0,0,19-727Z" transform="translate(1248 1196)"/>
    </g>
    <g id="pick-up-truck" transform="translate(394 403.992)">
      <g id="Group_52" data-name="Group 52" transform="translate(0 72.008)">
        <g id="Group_51" data-name="Group 51">
          <g class="cls-7" transform="matrix(1, 0, 0, 1, -1254, -476)">
            <path id="Path_1595-2" data-name="Path 1595" class="cls-2" d="M393.625,352.008a1.625,1.625,0,1,0,1.625,1.625A1.625,1.625,0,0,0,393.625,352.008Zm0,2.438a.813.813,0,1,1,.813-.812A.812.812,0,0,1,393.625,354.445Z" transform="translate(881.91 138.21)"/>
          </g>
          <g class="cls-6" transform="matrix(1, 0, 0, 1, -1254, -476)">
            <path id="Path_1596-2" data-name="Path 1596" class="cls-2" d="M57.625,352.008a1.625,1.625,0,1,0,1.625,1.625A1.625,1.625,0,0,0,57.625,352.008Zm0,2.438a.813.813,0,1,1,.813-.812A.812.812,0,0,1,57.625,354.445Z" transform="translate(1200.84 138.21)"/>
          </g>
          <g class="cls-5" transform="matrix(1, 0, 0, 1, -1254, -476)">
            <path id="Path_1597-2" data-name="Path 1597" class="cls-2" d="M25.594,81.758h-.406V72.414a.406.406,0,0,0-.406-.406h-9.75a.406.406,0,0,0-.406.406v4.063H9.75a.406.406,0,0,0-.406.406v4.875H8.938V77.289a.406.406,0,0,0-.406-.406H4.062a.406.406,0,0,0-.375.25L1.747,81.786a2.028,2.028,0,0,0-1.747,2v4.063a.406.406,0,0,0,.406.406H1.657a2.84,2.84,0,0,0,5.622,0H18.72a2.84,2.84,0,0,0,5.622,0h1.251A.406.406,0,0,0,26,87.852V82.164A.406.406,0,0,0,25.594,81.758ZM4.469,89.883A2.031,2.031,0,1,1,6.5,87.852,2.031,2.031,0,0,1,4.469,89.883Zm3.656-2.437H7.28a2.84,2.84,0,0,0-5.622,0H.813V83.789A1.219,1.219,0,0,1,2.031,82.57H8.125Zm0-5.687H2.641L4.333,77.7H8.125ZM18.688,72.82h2.438v4.469l-.975-.731a.406.406,0,0,0-.488,0l-.975.731V72.82Zm-3.25,0h2.438V78.1a.406.406,0,0,0,.65.325l1.381-1.036,1.381,1.036a.406.406,0,0,0,.65-.325V72.82h2.438v8.938H15.437Zm-5.281,4.469h4.469v4.469H10.156ZM21.531,89.883a2.031,2.031,0,1,1,2.031-2.031A2.031,2.031,0,0,1,21.531,89.883Zm3.656-2.437h-.845a2.84,2.84,0,0,0-5.622,0H8.938V82.57h16.25Z" transform="translate(1254 403.99)"/>
          </g>
          <g class="cls-4" transform="matrix(1, 0, 0, 1, -1254, -476)">
            <path id="Path_1598-2" data-name="Path 1598" class="cls-2" d="M68.247,195.227a.407.407,0,0,0,.156.031h3.453a.406.406,0,0,0,.406-.406v-2.437a.406.406,0,0,0-.406-.406H69.419a.406.406,0,0,0-.375.25L68.029,194.7A.406.406,0,0,0,68.247,195.227Zm1.443-2.406h1.76v1.625H69.013Z" transform="translate(1189.46 290.09)"/>
          </g>
          <g class="cls-3" transform="matrix(1, 0, 0, 1, -1254, -476)">
            <path id="Path_1599-2" data-name="Path 1599" class="cls-2" d="M211.25,192.008h-2.844a.406.406,0,0,0-.406.406v1.625a.406.406,0,0,0,.406.406h2.844a.406.406,0,0,0,.406-.406v-1.625A.406.406,0,0,0,211.25,192.008Zm-.406,1.625h-2.031v-.812h2.031Z" transform="translate(1056.56 290.09)"/>
          </g>
        </g>
      </g>
    </g>
  </g>
</svg>
