<svg xmlns="http://www.w3.org/2000/svg" xmlns:xlink="http://www.w3.org/1999/xlink" viewBox="1109 464 44 44">
  <defs>
    <style>
      .cls-1 {
        fill: #fff;
      }

      .cls-2 {
        fill: url(#linear-gradient);
      }

      .cls-3 {
        filter: url(#Exclusion_26);
      }

      .cls-4 {
        filter: url(#Ellipse_79);
      }
    </style>
    <filter id="Ellipse_79" x="1109" y="464" width="44" height="44" filterUnits="userSpaceOnUse">
      <feOffset dy="1" input="SourceAlpha"/>
      <feGaussianBlur stdDeviation="1" result="blur"/>
      <feFlood flood-opacity="0.161"/>
      <feComposite operator="in" in2="blur"/>
      <feComposite in="SourceGraphic"/>
    </filter>
    <linearGradient id="linear-gradient" x1="0.5" x2="0.5" y2="1" gradientUnits="objectBoundingBox">
      <stop offset="0" stop-color="#d4af37"/>
      <stop offset="0.502" stop-color="#cf9908"/>
      <stop offset="0.523" stop-color="#dfaa17"/>
      <stop offset="1" stop-color="#ffdd6e"/>
    </linearGradient>
    <filter id="Exclusion_26" x="1109" y="464" width="44" height="44" filterUnits="userSpaceOnUse">
      <feOffset dy="1" input="SourceAlpha"/>
      <feGaussianBlur stdDeviation="1" result="blur-2"/>
      <feFlood flood-opacity="0.161"/>
      <feComposite operator="in" in2="blur-2"/>
      <feComposite in="SourceGraphic"/>
    </filter>
  </defs>
  <g id="Group_81" data-name="Group 81" transform="translate(860)">
    <g class="cls-4" transform="matrix(1, 0, 0, 1, -860, 0)">
      <circle id="Ellipse_79-2" data-name="Ellipse 79" class="cls-1" cx="19" cy="19" r="19" transform="translate(1112 466)"/>
    </g>
    <g class="cls-3" transform="matrix(1, 0, 0, 1, -860, 0)">
      <path id="Exclusion_26-2" data-name="Exclusion 26" class="cls-2" d="M19-692a18.875,18.875,0,0,1-13.435-5.565A18.876,18.876,0,0,1,0-711a18.876,18.876,0,0,1,5.565-13.435A18.876,18.876,0,0,1,19-730a18.876,18.876,0,0,1,13.435,5.565A18.876,18.876,0,0,1,38-711a18.876,18.876,0,0,1-5.565,13.435A18.875,18.875,0,0,1,19-692Zm0-35A16.018,16.018,0,0,0,3-711a16.018,16.018,0,0,0,16,16,16.018,16.018,0,0,0,16-16A16.018,16.018,0,0,0,19-727Zm6.122,26a2.909,2.909,0,0,1-2.909-2.9H16.072a3.551,3.551,0,0,1-.018.355l-.03.29-.673,0A2.926,2.926,0,0,1,12.517-701a2.91,2.91,0,0,1-2.91-2.9c0-.04,0-.087.006-.146L9-704.458l.048-.215a3.588,3.588,0,0,1,3.146-2.763v-.984h.669l.277-3.871h-.946v-2.58h1.293a1.282,1.282,0,0,1,1.113.645h.357a1.135,1.135,0,0,1,1.115-.967h.836l.779-.779v-.189a1.6,1.6,0,0,1,.61-1.252,1.921,1.921,0,0,1-.933-1.651A1.94,1.94,0,0,1,19.3-721a1.94,1.94,0,0,1,1.94,1.936,1.919,1.919,0,0,1-.933,1.651,1.6,1.6,0,0,1,.61,1.252v4.125A1.662,1.662,0,0,1,20.552-711h1.985v-5.484h.646V-721h5.171v4.516H29v6.129H25.626a6.057,6.057,0,0,1,3.061,3.524A6.089,6.089,0,0,1,29-704.9v1h-.97A2.91,2.91,0,0,1,25.122-701Zm-2.263-2.9a2.263,2.263,0,0,0,2.263,2.258,2.263,2.263,0,0,0,2.263-2.258h-.969a1.294,1.294,0,0,1-1.293,1.291,1.293,1.293,0,0,1-1.292-1.291Zm-12.6,0a2.263,2.263,0,0,0,2.263,2.258,2.271,2.271,0,0,0,2.165-1.617l-.29,0L13.7-703.4a1.286,1.286,0,0,1-1.181.79,1.294,1.294,0,0,1-1.292-1.283l-.032-.007Zm14.221,0a.646.646,0,0,0,.646.645.646.646,0,0,0,.646-.645Zm-12.589.139h0a.65.65,0,0,0,.631.506.64.64,0,0,0,.523-.276l-1.154-.229Zm-1.843-1.658h0a2.877,2.877,0,0,0-.309.678l.294.2,1.259.006,3.2.638h.938a2.883,2.883,0,0,0-.853-2.051,2.891,2.891,0,0,0-2.056-.851,2.938,2.938,0,0,0-2.065.867l.2.1.963.007,2.91.645-.14.63-2.875-.637H10.5l-.458-.229Zm5.637-.094a3.493,3.493,0,0,1,.33.968H28.354v-.354c0-.085,0-.171-.01-.253l0-.038H21.89v-.645h6.381a5.6,5.6,0,0,0-.2-.788,5.457,5.457,0,0,0-5.184-3.729H19.95v.346a2.27,2.27,0,0,1,1.94,2.235,2.263,2.263,0,0,1-2.263,2.258H15.68Zm-.9-8.064v1.29l-.319,5.42a3.582,3.582,0,0,1,.8.709h.492v-5.161a1.293,1.293,0,0,1,1.292-1.291h.646v-.443a1.943,1.943,0,0,1-.669.121h-.947a1.124,1.124,0,0,1-1.018-.645Zm3.233,3.226v4.193h1.615a1.616,1.616,0,0,0,1.616-1.613,1.616,1.616,0,0,0-1.616-1.613H19.3v-.975l-.032,0a.255.255,0,0,1-.037,0Zm-1.616,2.9v1.29h.969v-1.29Zm-3.555-.323v.339a3.541,3.541,0,0,1,.992.239l.3-5.112v-.161a1.274,1.274,0,0,1-.344.14l-.326,4.556Zm4.2-4.193a.646.646,0,0,0-.646.645v3.226h.969v-2.258a.647.647,0,0,1,.647-.645h1.223a1.039,1.039,0,0,0,1.039-1.037v-.576H18.335v.645Zm6.141-3.871V-711h5.171v-4.838H26.738v2.258H24.8v-2.258ZM12.84-714.226v1.291h.646a.646.646,0,0,0,.646-.645.646.646,0,0,0-.646-.645Zm6.558-1.2h0l.456.456L18.39-713.5c-.01.011-.021.021-.033.03l-.022.02v.194h1.939v-2.9a.97.97,0,0,0-.969-.968.963.963,0,0,0-.825.466l.408.407-1.065,1.063.674.672.9-.9Zm-3.326.873a.485.485,0,0,0-.485.484.485.485,0,0,0,.485.484h.947a1.288,1.288,0,0,0,.914-.378l.105-.106-.674-.673-.189.189Zm9.373-1.29v1.613h.646v-1.613Zm-1.616-4.516v3.871h3.878v-3.871h-.969v2.258H24.8v-2.258Zm-4.525,0a1.293,1.293,0,0,0-1.292,1.291,1.293,1.293,0,0,0,1.292,1.29,1.293,1.293,0,0,0,1.292-1.29A1.293,1.293,0,0,0,19.3-720.355Zm6.141,0v1.613h.646v-1.613Z" transform="translate(1112 1196)"/>
    </g>
  </g>
</svg>
