<svg xmlns="http://www.w3.org/2000/svg" xmlns:xlink="http://www.w3.org/1999/xlink" viewBox="1177 464 44 44">
  <defs>
    <style>
      .cls-1 {
        fill: #fff;
      }

      .cls-2 {
        fill: url(#linear-gradient);
      }

      .cls-3 {
        filter: url(#Exclusion_28);
      }

      .cls-4 {
        filter: url(#Ellipse_80);
      }
    </style>
    <filter id="Ellipse_80" x="1177" y="464" width="44" height="44" filterUnits="userSpaceOnUse">
      <feOffset dy="1" input="SourceAlpha"/>
      <feGaussianBlur stdDeviation="1" result="blur"/>
      <feFlood flood-opacity="0.161"/>
      <feComposite operator="in" in2="blur"/>
      <feComposite in="SourceGraphic"/>
    </filter>
    <linearGradient id="linear-gradient" x1="0.5" x2="0.5" y2="1" gradientUnits="objectBoundingBox">
      <stop offset="0" stop-color="#d4af37"/>
      <stop offset="0.502" stop-color="#cf9908"/>
      <stop offset="0.523" stop-color="#dfaa17"/>
      <stop offset="1" stop-color="#ffdd6e"/>
    </linearGradient>
    <filter id="Exclusion_28" x="1177" y="464" width="44" height="44" filterUnits="userSpaceOnUse">
      <feOffset dy="1" input="SourceAlpha"/>
      <feGaussianBlur stdDeviation="1" result="blur-2"/>
      <feFlood flood-opacity="0.161"/>
      <feComposite operator="in" in2="blur-2"/>
      <feComposite in="SourceGraphic"/>
    </filter>
  </defs>
  <g id="Group_82" data-name="Group 82" transform="translate(860)">
    <g class="cls-4" transform="matrix(1, 0, 0, 1, -860, 0)">
      <circle id="Ellipse_80-2" data-name="Ellipse 80" class="cls-1" cx="19" cy="19" r="19" transform="translate(1180 466)"/>
    </g>
    <g class="cls-3" transform="matrix(1, 0, 0, 1, -860, 0)">
      <path id="Exclusion_28-2" data-name="Exclusion 28" class="cls-2" d="M19-692a18.875,18.875,0,0,1-13.435-5.565A18.876,18.876,0,0,1,0-711a18.876,18.876,0,0,1,5.565-13.435A18.876,18.876,0,0,1,19-730a18.876,18.876,0,0,1,13.435,5.565A18.876,18.876,0,0,1,38-711a18.876,18.876,0,0,1-5.565,13.435A18.875,18.875,0,0,1,19-692Zm0-35A16.018,16.018,0,0,0,3-711a16.018,16.018,0,0,0,16,16,16.018,16.018,0,0,0,16-16A16.018,16.018,0,0,0,19-727Zm9,26.723H11V-703.9h.739V-722H27.261v18.1H28v3.62Zm-16.261-2.9V-701H27.261v-2.172Zm.74-14.482V-703.9H26.521v-13.757Zm.739-2.172h5.174v1.448h8.13v-2.9H12.479v2.9h.739v-1.447Zm.739.724v.725h3.7v-.725Zm5.543,13.4a5.494,5.494,0,0,1-5.543-5.431,5.494,5.494,0,0,1,5.543-5.431,5.5,5.5,0,0,1,5.544,5.431A5.494,5.494,0,0,1,19.5-705.708Zm0-10.137a4.761,4.761,0,0,0-4.8,4.706,4.761,4.761,0,0,0,4.8,4.706,4.77,4.77,0,0,0,4.805-4.706A4.762,4.762,0,0,0,19.5-715.845Zm0,8.689c-.131,0-.264-.006-.407-.02l-.026,0-.038-.005c-.1-.013-.225-.029-.34-.051l-.031-.007a4.009,4.009,0,0,1-2.9-2.345c-.043-.1-.082-.208-.115-.308,0-.012-.008-.024-.013-.036s-.01-.028-.014-.041c-.022-.074-.042-.152-.06-.227l-.014-.057c-.01-.039-.019-.074-.026-.109s-.01-.061-.015-.091l-.007-.047v-.006c-.014-.082-.028-.166-.036-.251l-.032-.338.015,0v-.036a4.034,4.034,0,0,1,4.064-3.982,4.036,4.036,0,0,1,4.067,3.982c0,.006,0,.013,0,.019s0,.012,0,.017h.008l-.032.337c-.008.076-.019.149-.031.219l-.006.037c0,.02-.006.039-.009.059s-.008.058-.014.086-.017.076-.027.112l-.013.049-.009.036c-.016.065-.032.131-.051.195l-.013.037c0,.013-.009.025-.013.037a4.012,4.012,0,0,1-3.018,2.656l-.031.007c-.113.022-.227.039-.341.051l-.038.005-.026,0C19.764-707.163,19.627-707.156,19.5-707.156Zm-1.97-3.984a1.149,1.149,0,0,0-.764.289,2.3,2.3,0,0,1-.529.312.042.042,0,0,1,0,.021c.006.027.012.054.019.081l.012.05,0,.013c.014.058.029.117.046.174.009.025.018.051.026.077.031.09.058.166.09.24l.01.022a3.319,3.319,0,0,0,2.059,1.83l.022.006c.1.03.2.052.271.068l.024.005.032.007c.092.019.185.031.256.039l.028,0,.042.005a3.236,3.236,0,0,0,.326.016c.11,0,.22-.005.326-.016l.042-.005.029,0c.089-.008.175-.021.255-.036l.057-.013c.109-.024.192-.045.269-.068l.024-.007a3.316,3.316,0,0,0,2.058-1.83l.008-.02c.031-.071.06-.15.091-.243.009-.025.017-.049.025-.075.019-.062.034-.126.049-.189l0-.014c.01-.038.019-.075.027-.113v-.009l0-.014a2.291,2.291,0,0,1-.532-.313,1.149,1.149,0,0,0-.765-.29,1.151,1.151,0,0,0-.766.29,1.887,1.887,0,0,1-1.207.435,1.89,1.89,0,0,1-1.207-.435A1.145,1.145,0,0,0,17.526-711.14Zm0-.722a1.893,1.893,0,0,1,1.207.434,1.143,1.143,0,0,0,.763.29,1.143,1.143,0,0,0,.763-.29,1.9,1.9,0,0,1,1.208-.433,1.9,1.9,0,0,1,1.208.433c.047.034.092.067.139.1a3.289,3.289,0,0,0-3.124-3.062c-.065,0-.131-.006-.2-.006a3.294,3.294,0,0,0-3.312,3.065c.034-.023.069-.048.1-.073l.033-.024A1.893,1.893,0,0,1,17.528-711.862Zm.74-.625h0l-.493-.539a2.613,2.613,0,0,1,1.724-.645v.724h-.005a1.857,1.857,0,0,0-1.225.459ZM24.3-719.1a.733.733,0,0,1-.74-.724.733.733,0,0,1,.74-.724.733.733,0,0,1,.739.724A.732.732,0,0,1,24.3-719.1Zm-2.218,0a.732.732,0,0,1-.739-.724.733.733,0,0,1,.739-.724.733.733,0,0,1,.739.724A.732.732,0,0,1,22.087-719.1Z" transform="translate(1180 1196)"/>
    </g>
  </g>
</svg>
