<svg xmlns="http://www.w3.org/2000/svg" xmlns:xlink="http://www.w3.org/1999/xlink" viewBox="1178 527 126.001 126.001">
  <defs>
    <style>
      .cls-1 {
        fill: url(#linear-gradient);
      }

      .cls-2 {
        filter: url(#Exclusion_21);
      }
    </style>
    <linearGradient id="linear-gradient" x1="0.5" x2="0.5" y2="1" gradientUnits="objectBoundingBox">
      <stop offset="0" stop-color="#d4af37"/>
      <stop offset="0.502" stop-color="#cf9908"/>
      <stop offset="0.523" stop-color="#dfaa17"/>
      <stop offset="1" stop-color="#ffdd6e"/>
    </linearGradient>
    <filter id="Exclusion_21" x="1178" y="527" width="126.001" height="126.001" filterUnits="userSpaceOnUse">
      <feOffset dy="1" input="SourceAlpha"/>
      <feGaussianBlur stdDeviation="1" result="blur"/>
      <feFlood flood-opacity="0.161"/>
      <feComposite operator="in" in2="blur"/>
      <feComposite in="SourceGraphic"/>
    </filter>
  </defs>
  <g class="cls-2" transform="matrix(1, 0, 0, 1, 0, 0)">
    <path id="Exclusion_21-2" data-name="Exclusion 21" class="cls-1" d="M-800,120a59.624,59.624,0,0,1-23.355-4.715,59.8,59.8,0,0,1-19.072-12.859,59.8,59.8,0,0,1-12.859-19.072A59.624,59.624,0,0,1-860,60a59.624,59.624,0,0,1,4.715-23.355,59.8,59.8,0,0,1,12.859-19.072A59.8,59.8,0,0,1-823.355,4.715,59.624,59.624,0,0,1-800,0a59.625,59.625,0,0,1,23.355,4.715,59.8,59.8,0,0,1,19.072,12.859,59.8,59.8,0,0,1,12.858,19.072A59.625,59.625,0,0,1-740,60a59.625,59.625,0,0,1-4.715,23.355,59.8,59.8,0,0,1-12.858,19.072,59.8,59.8,0,0,1-19.072,12.859A59.625,59.625,0,0,1-800,120Zm0-112.127A52.185,52.185,0,0,0-852.126,60,52.185,52.185,0,0,0-800,112.127,52.185,52.185,0,0,0-747.874,60,52.185,52.185,0,0,0-800,7.874Zm19.332,83.705a9.188,9.188,0,0,1-9.186-9.168h-19.392c0,.371-.019.739-.056,1.121l-.093.916-2.129-.008a9.2,9.2,0,0,1-3.207,5.117,9.208,9.208,0,0,1-5.743,2.022,9.188,9.188,0,0,1-9.186-9.168c0-.131.005-.273.017-.463l-1.936-1.289.15-.681A11.085,11.085,0,0,1-827.862,74a11.354,11.354,0,0,1,6.368-2.747v-3.1h2.111l.875-12.225h-2.986v-8.15h4.082a4.1,4.1,0,0,1,3.515,2.038h1.13a3.583,3.583,0,0,1,1.181-2.174,3.543,3.543,0,0,1,2.339-.881h2.64l2.464-2.46v-.6a5.06,5.06,0,0,1,1.926-3.954,6.069,6.069,0,0,1-2.947-5.215,6.125,6.125,0,0,1,6.124-6.112,6.125,6.125,0,0,1,6.124,6.112,6.069,6.069,0,0,1-2.947,5.215,5.061,5.061,0,0,1,1.926,3.954V56.725A5.233,5.233,0,0,1-795.1,60h6.268V42.683h2.041V28.421h16.331V42.683h2.041V62.037h-10.657a19.2,19.2,0,0,1,5.888,4.541,19.143,19.143,0,0,1,3.778,6.589,19.187,19.187,0,0,1,.991,6.091v3.153h-3.062A9.188,9.188,0,0,1-780.668,91.579Zm-7.144-9.168a7.146,7.146,0,0,0,7.144,7.131,7.146,7.146,0,0,0,7.144-7.131h-3.062a4.084,4.084,0,0,1-4.082,4.074,4.083,4.083,0,0,1-4.082-4.074Zm-39.806,0a7.146,7.146,0,0,0,7.145,7.131,7.175,7.175,0,0,0,6.84-5.109l-.916,0-2.192-.437a4.062,4.062,0,0,1-3.731,2.494,4.086,4.086,0,0,1-4.081-4.054l-.1-.021Zm44.909,0a2.042,2.042,0,0,0,2.041,2.038,2.042,2.042,0,0,0,2.041-2.038Zm-39.756.438h0a2.054,2.054,0,0,0,1.992,1.6,2.031,2.031,0,0,0,1.652-.872l-3.644-.727Zm-5.819-5.234a9.082,9.082,0,0,0-.977,2.14l.932.618,3.974.021,10.106,2.017h2.961a9.1,9.1,0,0,0-2.693-6.48,9.131,9.131,0,0,0-6.492-2.689,9.27,9.27,0,0,0-6.521,2.738l.638.319,3.044.024,9.185,2.038-.443,1.989-9.076-2.013h-3.191l-1.446-.722Zm17.8-.3h0a11.126,11.126,0,0,1,1.044,3.055h38.98V79.258c0-.253-.014-.509-.028-.757l-.009-.165h-20.377V76.3h20.15a17.1,17.1,0,0,0-.623-2.486,17.23,17.23,0,0,0-16.368-11.776H-797v1.091a7.152,7.152,0,0,1,4.358,2.37,7.114,7.114,0,0,1,1.765,4.689,7.146,7.146,0,0,1-7.144,7.131h-12.466Zm7.363-15.28h0V75.281h5.1a5.1,5.1,0,0,0,5.1-5.093,5.1,5.1,0,0,0-5.1-5.094h-1.021V62.015a.93.93,0,0,0-.1.011.808.808,0,0,1-.118.011Zm-5.1,9.167v4.075h3.063V71.205Zm-5.1-19.355v4.074l-1.006,17.114a11.322,11.322,0,0,1,2.516,2.241h1.552v-16.3a4.083,4.083,0,0,1,4.082-4.074h2.042v-1.4a6.136,6.136,0,0,1-2.114.38h-2.99a3.592,3.592,0,0,1-3.214-2.038Zm-6.124,18.337v1.07a11.172,11.172,0,0,1,3.133.753l.951-16.144v-.508a4.057,4.057,0,0,1-1.084.442l-1.03,14.387Zm13.268-13.243a2.042,2.042,0,0,0-2.041,2.038V69.169h3.063V62.038A2.042,2.042,0,0,1-803.122,60h3.863a3.282,3.282,0,0,0,3.281-3.275V54.907H-802.1v2.037Zm19.393-12.224V60h16.331V44.72h-5.1v7.131h-6.124V44.72h-5.1Zm-32.661,5.093v4.075h2.041a2.042,2.042,0,0,0,2.041-2.038,2.042,2.042,0,0,0-2.041-2.038Zm20.712-3.776h0l1.443,1.44-4.629,4.62c-.032.032-.066.062-.1.09s-.051.045-.076.068v.614h6.124V43.7a3.063,3.063,0,0,0-3.062-3.056,3.041,3.041,0,0,0-2.606,1.473l1.287,1.284-3.362,3.355,2.129,2.125,2.85-2.845Zm-10.506,2.758a1.531,1.531,0,0,0-1.531,1.528,1.531,1.531,0,0,0,1.531,1.528h2.99a4.059,4.059,0,0,0,2.887-1.194l.335-.334-2.128-2.125-.6.6Zm29.6-4.074v5.093h2.041V44.72h-2.041Zm-5.1-14.261V42.683H-772.5V30.459h-3.063v7.131h-6.124V30.459Zm-14.289,0a4.083,4.083,0,0,0-4.082,4.074,4.083,4.083,0,0,0,4.082,4.075,4.083,4.083,0,0,0,4.082-4.075A4.083,4.083,0,0,0-799.04,30.459Zm19.392,0v5.093h2.041V30.459h-2.041Z" transform="translate(2041 529)"/>
  </g>
</svg>
