<svg xmlns="http://www.w3.org/2000/svg" xmlns:xlink="http://www.w3.org/1999/xlink" viewBox="1175 686 126.001 126.001">
  <defs>
    <style>
      .cls-1 {
        fill: url(#linear-gradient);
      }

      .cls-2 {
        filter: url(#Exclusion_23);
      }
    </style>
    <linearGradient id="linear-gradient" x1="0.5" x2="0.5" y2="1" gradientUnits="objectBoundingBox">
      <stop offset="0" stop-color="#d4af37"/>
      <stop offset="0.502" stop-color="#cf9908"/>
      <stop offset="0.523" stop-color="#dfaa17"/>
      <stop offset="1" stop-color="#ffdd6e"/>
    </linearGradient>
    <filter id="Exclusion_23" x="1175" y="686" width="126.001" height="126.001" filterUnits="userSpaceOnUse">
      <feOffset dy="1" input="SourceAlpha"/>
      <feGaussianBlur stdDeviation="1" result="blur"/>
      <feFlood flood-opacity="0.161"/>
      <feComposite operator="in" in2="blur"/>
      <feComposite in="SourceGraphic"/>
    </filter>
  </defs>
  <g class="cls-2" transform="matrix(1, 0, 0, 1, 0, 0)">
    <path id="Exclusion_23-2" data-name="Exclusion 23" class="cls-1" d="M-800,120a59.624,59.624,0,0,1-23.355-4.715,59.8,59.8,0,0,1-19.072-12.859,59.8,59.8,0,0,1-12.859-19.072A59.624,59.624,0,0,1-860,60a59.624,59.624,0,0,1,4.715-23.355,59.8,59.8,0,0,1,12.859-19.072A59.8,59.8,0,0,1-823.355,4.715,59.624,59.624,0,0,1-800,0a59.625,59.625,0,0,1,23.355,4.715,59.8,59.8,0,0,1,19.072,12.859,59.8,59.8,0,0,1,12.858,19.072A59.625,59.625,0,0,1-740,60a59.625,59.625,0,0,1-4.715,23.355,59.8,59.8,0,0,1-12.858,19.072,59.8,59.8,0,0,1-19.072,12.859A59.625,59.625,0,0,1-800,120Zm0-112.127A52.185,52.185,0,0,0-852.126,60,52.185,52.185,0,0,0-800,112.127,52.185,52.185,0,0,0-747.874,60,52.185,52.185,0,0,0-800,7.874Zm26.929,81.716a8.965,8.965,0,0,1-5.838-2.171,8.961,8.961,0,0,1-3.027-5.524h-36.127a8.9,8.9,0,0,1-2.536,5.066,8.9,8.9,0,0,1-5.066,2.536,9.084,9.084,0,0,1-1.287.092,8.963,8.963,0,0,1-5.838-2.171,8.961,8.961,0,0,1-3.028-5.524h-3.952a1.284,1.284,0,0,1-1.283-1.283V67.783a6.406,6.406,0,0,1,1.578-4.192,6.407,6.407,0,0,1,3.938-2.134l6.129-14.7a1.278,1.278,0,0,1,1.183-.789h14.112a1.285,1.285,0,0,1,1.283,1.283V61.369h1.283v-15.4a1.284,1.284,0,0,1,1.283-1.282h15.394V31.862a1.284,1.284,0,0,1,1.283-1.283h30.79a1.284,1.284,0,0,1,1.283,1.283V61.369h1.282a1.284,1.284,0,0,1,1.283,1.283v17.96A1.285,1.285,0,0,1-760.23,81.9h-3.951a8.9,8.9,0,0,1-2.536,5.066,8.9,8.9,0,0,1-5.067,2.536A9.1,9.1,0,0,1-773.071,89.591Zm.013-15.393a6.422,6.422,0,0,0-6.415,6.414,6.422,6.422,0,0,0,6.415,6.415,6.433,6.433,0,0,0,6.414-6.415A6.422,6.422,0,0,0-773.059,74.2Zm-53.882,0a6.422,6.422,0,0,0-6.414,6.414,6.422,6.422,0,0,0,6.414,6.415,6.434,6.434,0,0,0,6.414-6.415A6.422,6.422,0,0,0-826.941,74.2Zm53.894-2.563a8.966,8.966,0,0,1,5.838,2.171,8.963,8.963,0,0,1,3.028,5.524h2.669V63.935h-51.316V79.33h30.893a8.9,8.9,0,0,1,2.535-5.067,8.9,8.9,0,0,1,5.067-2.535A9.1,9.1,0,0,1-773.047,71.635Zm-53.882,0a8.966,8.966,0,0,1,5.838,2.171,8.96,8.96,0,0,1,3.028,5.524h2.669V63.935h-19.244a3.853,3.853,0,0,0-3.848,3.848V79.33h2.668a8.9,8.9,0,0,1,2.536-5.067,8.9,8.9,0,0,1,5.066-2.535A9.094,9.094,0,0,1-826.929,71.635ZM-792.3,33.145V61.369h28.224V33.145h-7.7V49.823a1.292,1.292,0,0,1-.257.77,1.272,1.272,0,0,1-1.027.513,1.274,1.274,0,0,1-.769-.257l-4.361-3.271-4.362,3.271a1.288,1.288,0,0,1-.769.257,1.284,1.284,0,0,1-1.283-1.283V33.145ZM-808.98,47.257V61.369h14.112V47.257Zm-18.388,1.282-5.346,12.83h17.32V48.54Zm49.178-3.848a1.289,1.289,0,0,1,.77.256l3.079,2.309V33.145h-7.7V47.257l3.08-2.309A1.272,1.272,0,0,1-778.19,44.691Zm5.132,41.053a5.138,5.138,0,0,1-5.132-5.132,5.137,5.137,0,0,1,5.132-5.131,5.137,5.137,0,0,1,5.132,5.131A5.138,5.138,0,0,1-773.059,85.744Zm0-7.7a2.569,2.569,0,0,0-2.566,2.566,2.569,2.569,0,0,0,2.566,2.566,2.569,2.569,0,0,0,2.566-2.566A2.569,2.569,0,0,0-773.059,78.046Zm-53.882,7.7a5.138,5.138,0,0,1-5.132-5.132,5.137,5.137,0,0,1,5.132-5.131,5.137,5.137,0,0,1,5.132,5.131A5.138,5.138,0,0,1-826.941,85.744Zm0-7.7a2.569,2.569,0,0,0-2.566,2.566,2.569,2.569,0,0,0,2.566,2.566,2.569,2.569,0,0,0,2.566-2.566A2.569,2.569,0,0,0-826.941,78.046Zm8.98-17.96h-10.9a1.27,1.27,0,0,1-.494-.1,1.274,1.274,0,0,1-.693-.7,1.273,1.273,0,0,1,0-.982l3.208-7.7a1.278,1.278,0,0,1,1.184-.788h7.7a1.284,1.284,0,0,1,1.282,1.283v7.7A1.284,1.284,0,0,1-817.961,60.086Zm-6.842-7.7-2.138,5.131h7.7V52.389H-824.8Zm27.368,5.131h-8.98a1.284,1.284,0,0,1-1.282-1.283V51.106a1.284,1.284,0,0,1,1.282-1.283h8.98a1.284,1.284,0,0,1,1.283,1.283v5.132A1.284,1.284,0,0,1-797.434,57.52Zm-7.7-5.131v2.565h6.415V52.389Z" transform="translate(2038 688)"/>
  </g>
</svg>
