<svg xmlns="http://www.w3.org/2000/svg" xmlns:xlink="http://www.w3.org/1999/xlink" viewBox="1041 464 44.001 44">
  <defs>
    <style>
      .cls-1 {
        fill: #fff;
      }

      .cls-2 {
        fill: url(#linear-gradient);
      }

      .cls-3 {
        filter: url(#Exclusion_31);
      }

      .cls-4 {
        filter: url(#Ellipse_83);
      }
    </style>
    <filter id="Ellipse_83" x="1041" y="464" width="44" height="44" filterUnits="userSpaceOnUse">
      <feOffset dy="1" input="SourceAlpha"/>
      <feGaussianBlur stdDeviation="1" result="blur"/>
      <feFlood flood-opacity="0.161"/>
      <feComposite operator="in" in2="blur"/>
      <feComposite in="SourceGraphic"/>
    </filter>
    <linearGradient id="linear-gradient" x1="0.5" x2="0.5" y2="1" gradientUnits="objectBoundingBox">
      <stop offset="0" stop-color="#d4af37"/>
      <stop offset="0.502" stop-color="#cf9908"/>
      <stop offset="0.523" stop-color="#dfaa17"/>
      <stop offset="1" stop-color="#ffdd6e"/>
    </linearGradient>
    <filter id="Exclusion_31" x="1041" y="464" width="44.001" height="44" filterUnits="userSpaceOnUse">
      <feOffset dy="1" input="SourceAlpha"/>
      <feGaussianBlur stdDeviation="1" result="blur-2"/>
      <feFlood flood-opacity="0.161"/>
      <feComposite operator="in" in2="blur-2"/>
      <feComposite in="SourceGraphic"/>
    </filter>
  </defs>
  <g id="Group_80" data-name="Group 80" transform="translate(860)">
    <g id="Group_79" data-name="Group 79">
      <g class="cls-4" transform="matrix(1, 0, 0, 1, -860, 0)">
        <circle id="Ellipse_83-2" data-name="Ellipse 83" class="cls-1" cx="19" cy="19" r="19" transform="translate(1044 466)"/>
      </g>
      <g class="cls-3" transform="matrix(1, 0, 0, 1, -860, 0)">
        <path id="Exclusion_31-2" data-name="Exclusion 31" class="cls-2" d="M-841,38a18.877,18.877,0,0,1-13.436-5.565A18.875,18.875,0,0,1-860,19a18.875,18.875,0,0,1,5.565-13.435A18.877,18.877,0,0,1-841,0a18.876,18.876,0,0,1,13.435,5.565A18.876,18.876,0,0,1-822,19a18.876,18.876,0,0,1-5.565,13.435A18.876,18.876,0,0,1-841,38Zm0-35a16.018,16.018,0,0,0-16,16,16.018,16.018,0,0,0,16,16,16.018,16.018,0,0,0,16-16A16.018,16.018,0,0,0-841,3Zm5.517,26a.342.342,0,0,1-.243-.1l-1.19-1.187a9.215,9.215,0,0,1-4.084.944,9.222,9.222,0,0,1-4.085-.944l-1.19,1.187a.341.341,0,0,1-.243.1.342.342,0,0,1-.244-.1.342.342,0,0,1-.1-.243.342.342,0,0,1,.1-.243l1.044-1.041a9.381,9.381,0,0,1-3.327-3.33,9.24,9.24,0,0,1-1.267-4.671,9.221,9.221,0,0,1,2.608-6.436l-.578-.576-1.412,1.409a.347.347,0,0,1-.244.1.343.343,0,0,1-.244-.1A2.77,2.77,0,0,1-851,11.791a2.77,2.77,0,0,1,.819-1.975A2.785,2.785,0,0,1-848.2,9a2.787,2.787,0,0,1,1.981.817.338.338,0,0,1,.1.243.342.342,0,0,1-.1.243l-1.573,1.569.586.584A9.307,9.307,0,0,1-841,10.084a9.3,9.3,0,0,1,6.206,2.372l.587-.584L-835.78,10.3a.338.338,0,0,1-.1-.243.341.341,0,0,1,.1-.243A2.785,2.785,0,0,1-833.8,9a2.785,2.785,0,0,1,1.98.817A2.771,2.771,0,0,1-831,11.791a2.771,2.771,0,0,1-.819,1.975.347.347,0,0,1-.244.1.343.343,0,0,1-.244-.1l-1.413-1.409-.578.576a9.223,9.223,0,0,1,2.609,6.436,9.238,9.238,0,0,1-1.267,4.671,9.383,9.383,0,0,1-3.327,3.33l1.044,1.041a.342.342,0,0,1,.1.243.342.342,0,0,1-.1.243A.342.342,0,0,1-835.483,29ZM-841,10.772a8.62,8.62,0,0,0-8.622,8.6,8.62,8.62,0,0,0,8.622,8.6,8.619,8.619,0,0,0,8.621-8.6A8.619,8.619,0,0,0-841,10.772Zm7.2-1.084a2.106,2.106,0,0,0-1.229.391l2.946,2.938a2.092,2.092,0,0,0-.224-2.714A2.1,2.1,0,0,0-833.8,9.688Zm-14.4,0a2.1,2.1,0,0,0-1.492.615,2.093,2.093,0,0,0-.224,2.714l2.946-2.938A2.106,2.106,0,0,0-848.2,9.688ZM-841,27.28a7.932,7.932,0,0,1-3.938-1.049l-.01,0-.018-.007-.007-.007-.007-.007a7.977,7.977,0,0,1-2.871-2.859l-.009-.011-.009-.011a.032.032,0,0,1,0-.009.028.028,0,0,0,0-.01,7.877,7.877,0,0,1-1.056-3.937,7.882,7.882,0,0,1,1.056-3.937.037.037,0,0,0,0-.008.041.041,0,0,1,0-.011l.007-.007.007-.007a7.976,7.976,0,0,1,2.875-2.867l.006-.006.008-.008.011,0,.008,0A7.935,7.935,0,0,1-841,11.459a7.928,7.928,0,0,1,3.947,1.054l.009,0,.011,0,.008.007.006.006a7.981,7.981,0,0,1,2.875,2.867l.007.008.006.006a.05.05,0,0,1,0,.009.04.04,0,0,0,0,.01,7.878,7.878,0,0,1,1.057,3.937,7.883,7.883,0,0,1-1.057,3.937.037.037,0,0,0,0,.009.055.055,0,0,1,0,.01l-.009.011-.009.011a7.977,7.977,0,0,1-2.871,2.859l-.007.006-.008.007-.017.007-.01,0A7.932,7.932,0,0,1-841,27.28Zm0-1.375a.345.345,0,0,1,.345.344v.326a7.161,7.161,0,0,0,2.97-.791l-.165-.284a.341.341,0,0,1-.035-.261.341.341,0,0,1,.161-.209.344.344,0,0,1,.172-.046.347.347,0,0,1,.3.171l.165.284a7.206,7.206,0,0,0,2.173-2.168l-.284-.165a.34.34,0,0,1-.161-.208.343.343,0,0,1,.034-.262.345.345,0,0,1,.3-.172.344.344,0,0,1,.173.047l.286.165a7.121,7.121,0,0,0,.793-2.962h-.328a.345.345,0,0,1-.345-.344.345.345,0,0,1,.345-.345h.328a7.121,7.121,0,0,0-.793-2.962l-.286.166a.349.349,0,0,1-.172.046.347.347,0,0,1-.3-.172.341.341,0,0,1-.035-.261.341.341,0,0,1,.161-.209l.284-.165a7.314,7.314,0,0,0-2.173-2.167l-.165.284a.344.344,0,0,1-.3.172.341.341,0,0,1-.172-.046.341.341,0,0,1-.161-.209.341.341,0,0,1,.035-.261l.165-.285a7.161,7.161,0,0,0-2.97-.79v.326a.345.345,0,0,1-.345.344.345.345,0,0,1-.345-.344v-.326a7.175,7.175,0,0,0-2.97.79l.166.285a.342.342,0,0,1,.034.261.342.342,0,0,1-.161.209.341.341,0,0,1-.172.046.341.341,0,0,1-.3-.172l-.165-.283a7.336,7.336,0,0,0-2.174,2.167l.284.165a.345.345,0,0,1,.127.47.346.346,0,0,1-.3.172.346.346,0,0,1-.172-.046l-.285-.165a7.123,7.123,0,0,0-.794,2.962h.328a.345.345,0,0,1,.345.344.345.345,0,0,1-.345.344h-.328a7.113,7.113,0,0,0,.793,2.962l.286-.165a.342.342,0,0,1,.171-.046.348.348,0,0,1,.3.172.341.341,0,0,1,.035.261.341.341,0,0,1-.161.209l-.284.165a7.315,7.315,0,0,0,2.174,2.167l.165-.284a.345.345,0,0,1,.3-.171.346.346,0,0,1,.173.046.341.341,0,0,1,.161.209.341.341,0,0,1-.035.261l-.165.284a7.148,7.148,0,0,0,2.97.791v-.326A.345.345,0,0,1-841,25.9Zm0-5.16a1.379,1.379,0,0,1-1.38-1.375,1.373,1.373,0,0,1,1.034-1.327V14.555a.345.345,0,0,1,.346-.344.345.345,0,0,1,.345.344v3.488a1.377,1.377,0,0,1,.985.983h2.463a.345.345,0,0,1,.345.344.345.345,0,0,1-.345.344h-2.463A1.377,1.377,0,0,1-841,20.745Zm0-2.063a.69.69,0,0,0-.69.688.69.69,0,0,0,.69.688.689.689,0,0,0,.689-.688A.689.689,0,0,0-841,18.682Z" transform="translate(1904 466)"/>
      </g>
    </g>
  </g>
</svg>
