<svg xmlns="http://www.w3.org/2000/svg" xmlns:xlink="http://www.w3.org/1999/xlink" viewBox="544 804 132 132">
  <defs>
    <style>
      .cls-1 {
        fill: url(#linear-gradient);
      }

      .cls-2 {
        filter: url(#Exclusion_20);
      }
    </style>
    <linearGradient id="linear-gradient" x1="0.5" x2="0.5" y2="1" gradientUnits="objectBoundingBox">
      <stop offset="0" stop-color="#d4af37"/>
      <stop offset="0.502" stop-color="#cf9908"/>
      <stop offset="0.523" stop-color="#dfaa17"/>
      <stop offset="1" stop-color="#ffdd6e"/>
    </linearGradient>
    <filter id="Exclusion_20" x="544" y="804" width="132" height="132" filterUnits="userSpaceOnUse">
      <feOffset dy="3" input="SourceAlpha"/>
      <feGaussianBlur stdDeviation="2" result="blur"/>
      <feFlood flood-opacity="0.161"/>
      <feComposite operator="in" in2="blur"/>
      <feComposite in="SourceGraphic"/>
    </filter>
  </defs>
  <g class="cls-2" transform="matrix(1, 0, 0, 1, 0, 0)">
    <path id="Exclusion_20-2" data-name="Exclusion 20" class="cls-1" d="M-370-610a59.623,59.623,0,0,1-23.355-4.715,59.8,59.8,0,0,1-19.072-12.859,59.8,59.8,0,0,1-12.859-19.072A59.624,59.624,0,0,1-430-670a59.623,59.623,0,0,1,4.715-23.355,59.8,59.8,0,0,1,12.859-19.072,59.8,59.8,0,0,1,19.072-12.858A59.625,59.625,0,0,1-370-730a59.625,59.625,0,0,1,23.355,4.715,59.8,59.8,0,0,1,19.071,12.858,59.8,59.8,0,0,1,12.858,19.072A59.624,59.624,0,0,1-310-670a59.626,59.626,0,0,1-4.715,23.355,59.8,59.8,0,0,1-12.858,19.072,59.8,59.8,0,0,1-19.071,12.859A59.622,59.622,0,0,1-370-610Zm0-112.126A52.185,52.185,0,0,0-422.126-670,52.185,52.185,0,0,0-370-617.874,52.185,52.185,0,0,0-317.874-670,52.185,52.185,0,0,0-370-722.127Zm17.425,83.705a1.085,1.085,0,0,1-.77-.318l-3.757-3.748a29.122,29.122,0,0,1-12.9,2.979,29.121,29.121,0,0,1-12.9-2.979l-3.757,3.748a1.085,1.085,0,0,1-.77.318,1.083,1.083,0,0,1-.77-.318,1.078,1.078,0,0,1-.319-.768,1.078,1.078,0,0,1,.319-.768l3.3-3.289A29.634,29.634,0,0,1-395.4-654.081a29.177,29.177,0,0,1-4-14.751,29.121,29.121,0,0,1,8.239-20.323l-1.825-1.821-4.461,4.449a1.092,1.092,0,0,1-.77.318,1.085,1.085,0,0,1-.77-.318,8.748,8.748,0,0,1-2.587-6.237A8.748,8.748,0,0,1-398.992-699a8.8,8.8,0,0,1,6.254-2.578A8.8,8.8,0,0,1-386.483-699a1.077,1.077,0,0,1,.319.769,1.079,1.079,0,0,1-.319.768l-4.967,4.954,1.851,1.845a29.378,29.378,0,0,1,19.6-7.49,29.379,29.379,0,0,1,19.6,7.49l1.85-1.845-4.967-4.954a1.073,1.073,0,0,1-.319-.768,1.077,1.077,0,0,1,.319-.769,8.8,8.8,0,0,1,6.254-2.578A8.8,8.8,0,0,1-341.007-699a8.748,8.748,0,0,1,2.587,6.237,8.748,8.748,0,0,1-2.587,6.237,1.092,1.092,0,0,1-.77.318,1.085,1.085,0,0,1-.77-.318l-4.46-4.449-1.827,1.821a29.121,29.121,0,0,1,8.239,20.323,29.177,29.177,0,0,1-4,14.751A29.633,29.633,0,0,1-355.1-643.564l3.3,3.289a1.077,1.077,0,0,1,.32.768,1.077,1.077,0,0,1-.32.768A1.084,1.084,0,0,1-352.575-638.421ZM-370-695.983a27.219,27.219,0,0,0-27.226,27.151A27.22,27.22,0,0,0-370-641.679a27.22,27.22,0,0,0,27.226-27.152A27.219,27.219,0,0,0-370-695.983Zm22.738-3.426a6.63,6.63,0,0,0-3.882,1.24l9.3,9.277a6.611,6.611,0,0,0-.706-8.572A6.627,6.627,0,0,0-347.261-699.409Zm-45.478,0a6.63,6.63,0,0,0-4.712,1.944,6.608,6.608,0,0,0-.706,8.571l9.3-9.275A6.636,6.636,0,0,0-392.739-699.408ZM-370-643.852a25.059,25.059,0,0,1-12.437-3.31l-.033-.013a.275.275,0,0,1-.053-.023.12.12,0,0,1-.026-.022.141.141,0,0,0-.021-.018,25.228,25.228,0,0,1-9.067-9.031.322.322,0,0,0-.024-.03.263.263,0,0,1-.031-.042.119.119,0,0,1-.01-.031.12.12,0,0,0-.009-.028,24.884,24.884,0,0,1-3.335-12.431,24.886,24.886,0,0,1,3.335-12.43.148.148,0,0,0,.008-.027.112.112,0,0,1,.011-.032.109.109,0,0,1,.022-.025.121.121,0,0,0,.02-.022,25.2,25.2,0,0,1,9.081-9.056.121.121,0,0,0,.022-.02.11.11,0,0,1,.025-.022.1.1,0,0,1,.032-.012.127.127,0,0,0,.028-.009A25.041,25.041,0,0,1-370-693.812a25.046,25.046,0,0,1,12.464,3.326.14.14,0,0,0,.029.01.129.129,0,0,1,.031.011.128.128,0,0,1,.025.022.148.148,0,0,0,.022.02,25.213,25.213,0,0,1,9.08,9.056.121.121,0,0,0,.019.022.128.128,0,0,1,.022.025.118.118,0,0,1,.01.031.127.127,0,0,0,.009.029,24.881,24.881,0,0,1,3.335,12.43,24.888,24.888,0,0,1-3.335,12.431.138.138,0,0,0-.009.027.122.122,0,0,1-.011.032.276.276,0,0,1-.031.042.347.347,0,0,0-.024.03,25.228,25.228,0,0,1-9.067,9.031.126.126,0,0,0-.023.02.115.115,0,0,1-.023.02.29.29,0,0,1-.054.023l-.034.013A25.054,25.054,0,0,1-370-643.852Zm-10.888-7.254a1.1,1.1,0,0,1,.544.145,1.079,1.079,0,0,1,.507.659,1.079,1.079,0,0,1-.108.825l-.522.9a22.633,22.633,0,0,0,9.379,2.5v-1.031A1.089,1.089,0,0,1-370-648.2a1.089,1.089,0,0,1,1.089,1.086v1.031a22.646,22.646,0,0,0,9.379-2.5l-.521-.9a1.077,1.077,0,0,1-.109-.824,1.079,1.079,0,0,1,.508-.66,1.086,1.086,0,0,1,.543-.146,1.1,1.1,0,0,1,.944.544l.52.9a23.1,23.1,0,0,0,6.862-6.848l-.9-.518a1.078,1.078,0,0,1-.507-.659,1.078,1.078,0,0,1,.109-.824,1.1,1.1,0,0,1,.944-.544,1.09,1.09,0,0,1,.544.146l.9.52a22.478,22.478,0,0,0,2.5-9.353h-1.033a1.089,1.089,0,0,1-1.089-1.086,1.089,1.089,0,0,1,1.089-1.086h1.033a22.485,22.485,0,0,0-2.5-9.353l-.9.52a1.091,1.091,0,0,1-.544.146,1.1,1.1,0,0,1-.944-.544,1.076,1.076,0,0,1-.109-.824,1.078,1.078,0,0,1,.508-.66l.9-.518A22.818,22.818,0,0,0-357.649-688l-.519.9a1.094,1.094,0,0,1-.944.543,1.1,1.1,0,0,1-.544-.145,1.08,1.08,0,0,1-.507-.66,1.078,1.078,0,0,1,.109-.824l.522-.9a22.621,22.621,0,0,0-9.379-2.5v1.031A1.089,1.089,0,0,1-370-689.467a1.089,1.089,0,0,1-1.089-1.086v-1.031a22.646,22.646,0,0,0-9.379,2.5l.521.9a1.078,1.078,0,0,1,.109.824,1.079,1.079,0,0,1-.507.66,1.1,1.1,0,0,1-.544.145,1.1,1.1,0,0,1-.944-.543l-.52-.9a23.152,23.152,0,0,0-6.864,6.845l.9.52a1.079,1.079,0,0,1,.507.66,1.078,1.078,0,0,1-.109.824,1.094,1.094,0,0,1-.944.543,1.091,1.091,0,0,1-.544-.146l-.9-.52a22.466,22.466,0,0,0-2.5,9.354h1.035a1.089,1.089,0,0,1,1.089,1.086,1.088,1.088,0,0,1-1.089,1.085h-1.033a22.487,22.487,0,0,0,2.5,9.354l.9-.52a1.084,1.084,0,0,1,.544-.147,1.1,1.1,0,0,1,.944.544,1.077,1.077,0,0,1,.109.824,1.079,1.079,0,0,1-.508.66l-.9.518a23.137,23.137,0,0,0,6.864,6.846l.519-.9A1.094,1.094,0,0,1-380.888-651.106ZM-370-664.487a4.355,4.355,0,0,1-4.356-4.344,4.34,4.34,0,0,1,3.267-4.19v-11.015A1.089,1.089,0,0,1-370-685.122a1.089,1.089,0,0,1,1.089,1.086v11.015a4.343,4.343,0,0,1,3.112,3.1h7.779a1.088,1.088,0,0,1,1.089,1.085,1.089,1.089,0,0,1-1.089,1.086H-365.8A4.347,4.347,0,0,1-370-664.487Zm0-6.516a2.177,2.177,0,0,0-2.178,2.172A2.178,2.178,0,0,0-370-666.659a2.178,2.178,0,0,0,2.178-2.173A2.177,2.177,0,0,0-370-671Z" transform="translate(980 1537)"/>
  </g>
</svg>
