<?xml version="1.0" encoding="iso-8859-1"?>
<!-- Generator: Adobe Illustrator 19.0.0, SVG Export Plug-In . SVG Version: 6.00 Build 0)  -->
<svg version="1.1" id="Layer_1" xmlns="http://www.w3.org/2000/svg" xmlns:xlink="http://www.w3.org/1999/xlink" x="0px" y="0px"
	 viewBox="0 0 463 463" style="enable-background:new 0 0 463 463;" xml:space="preserve">
<g>
	<g>
		<g>
			<path d="M231.499,200C183.251,200.001,144,239.253,144,287.5c0,48.248,39.252,87.5,87.5,87.5s87.5-39.252,87.5-87.5
				S279.748,200,231.499,200L231.499,200z M238.998,223.5v-8.113c14.375,1.484,27.511,7.192,38.159,15.849l-66.961,66.96
				c-2.929,2.93-2.929,7.678,0,10.607c1.464,1.464,3.384,2.196,5.303,2.196c1.919,0,3.839-0.732,5.303-2.196l66.961-66.961
				c8.657,10.647,14.364,23.783,15.848,38.157H295.5c-4.142,0-7.5,3.357-7.5,7.5s3.358,7.5,7.5,7.5h8.113
				C300.102,329,273,356.102,239,359.613V343.5c0-4.143-3.358-7.5-7.5-7.5c-4.142,0-7.5,3.357-7.5,7.5v16.113
				C190,356.102,162.898,329,159.387,295h8.113c4.142,0,7.5-3.357,7.5-7.5s-3.358-7.5-7.5-7.5h-8.113
				c3.51-33.999,30.612-61.101,64.611-64.612v8.112c0,4.143,3.358,7.5,7.5,7.5C235.64,231,238.998,227.643,238.998,223.5z"/>
			<path d="M446.237,4.205C444.979,1.632,442.364,0,439.5,0h-416c-2.864,0-5.479,1.632-6.737,4.205
				c-1.259,2.573-0.941,5.639,0.817,7.899l51.195,65.823C73.26,83.693,80.021,87,87.326,87h74.319l3.55,14.2
				c2.62,10.48,11.996,17.8,22.798,17.8h12.033c-0.011,0.166-0.025,0.331-0.025,0.5V136h-0.5c-8.547,0-15.5,6.953-15.5,15.5v26.357
				c-42.326,18.407-72,60.622-72,109.643c0,0.38,0.011,0.757,0.014,1.136c-13.827,2.811-24.414,14.669-25.145,29.291l-6.86,137.198
				c-0.103,2.052,0.641,4.056,2.057,5.544C83.483,462.157,85.446,463,87.5,463h288c2.054,0,4.019-0.843,5.434-2.331
				c1.415-1.488,2.159-3.492,2.057-5.544l-6.86-137.198c-0.731-14.622-11.318-26.48-25.145-29.291
				c0.004-0.379,0.014-0.756,0.014-1.136c0-49.021-29.674-91.236-72-109.643V151.5c0-8.547-6.953-15.5-15.5-15.5H263v-16.5
				c0-0.169-0.014-0.334-0.025-0.5h12.033c10.803,0,20.178-7.319,22.798-17.8l3.55-14.2h74.319c7.304,0,14.065-3.307,18.549-9.072
				l51.196-65.823C447.179,9.844,447.496,6.778,446.237,4.205z M361.149,318.677L367.616,448H95.384l6.466-129.323
				c0.349-6.973,4.982-12.733,11.273-14.823C121.122,362.036,171.155,407,231.5,407c60.345,0,110.378-44.964,118.376-103.146
				C356.167,305.944,360.801,311.704,361.149,318.677z M271.5,191c0.026,0,0.051-0.004,0.078-0.004
				C309.367,206.748,336,244.07,336,287.5c0,57.621-46.878,104.5-104.5,104.5S127,345.121,127,287.5
				c0-43.43,26.633-80.752,64.422-96.504c0.026,0,0.051,0.004,0.078,0.004c1.961,0,3.741-0.759,5.078-1.991
				c10.926-3.886,22.68-6.009,34.922-6.009s23.997,2.123,34.922,6.009C267.758,190.242,269.538,191,271.5,191z M263.5,151
				c0.276,0,0.5,0.225,0.5,0.5v20.993c-10.337-2.925-21.239-4.493-32.5-4.493s-22.163,1.568-32.5,4.493V151.5
				c0-0.275,0.224-0.5,0.5-0.5H263.5z M214.975,119h33.05c-0.011,0.166-0.025,0.331-0.025,0.5V136h-33v-16.5
				C215,119.331,214.986,119.166,214.975,119z M283.253,97.563c-0.947,3.79-4.338,6.438-8.246,6.438h-87.015
				c-3.908,0-7.299-2.647-8.247-6.438L177.106,87h108.788L283.253,97.563z M382.384,68.719c-1.622,2.085-4.067,3.281-6.709,3.281
				H295.5h-128H87.326c-2.642,0-5.088-1.196-6.71-3.281L38.835,15h385.33L382.384,68.719z"/>
		</g>
	</g>
</g>
<g>
</g>
<g>
</g>
<g>
</g>
<g>
</g>
<g>
</g>
<g>
</g>
<g>
</g>
<g>
</g>
<g>
</g>
<g>
</g>
<g>
</g>
<g>
</g>
<g>
</g>
<g>
</g>
<g>
</g>
</svg>
